<svg xmlns="http://www.w3.org/2000/svg" viewBox="0 0 478.25 466.02"><defs><style>.cls-1{isolation:isolate;}.cls-2{fill:#aaa;}.cls-3{fill:#c2c2c2;}.cls-4{fill:#3e3e3e;}.cls-5{fill:#c3c3c3;}.cls-6{fill:#4a4a4a;}.cls-7{fill:#393939;}.cls-8{fill:#727272;}.cls-9{fill:#626262;}.cls-10{fill:#434343;}.cls-11{fill:#4d4d4d;}.cls-12{fill:#e3e3e3;}.cls-13{fill:#474747;}.cls-14,.cls-15{fill:#054366;}.cls-14{opacity:0.5;mix-blend-mode:soft-light;}.cls-16{fill:#f2f2f2;}.cls-17{fill:#c0242d;}</style></defs><title>beatty</title><g class="cls-1"><g id="Layer_2" data-name="Layer 2"><g id="Layer_1-2" data-name="Layer 1"><path class="cls-2" d="M191,167.92V197.3s15.61,26,50.47,27.07v.05l1,0,1.23,0v-.06c28.57-1.31,44-27.05,44-27.05V167.92Z"/><rect class="cls-3" x="193.27" y="220.45" width="95.48" height="119"/><path class="cls-4" d="M353.16,466c6.63-29.68,21.49-128,22.06-131.42.63-3.78,17-68.64,20.78-76.2s10.08-19.52,7.56-23.3-115.52-46-115.52-46L242.62,466Z"/><path class="cls-2" d="M289.44,129.9S305,103.58,308,104.44s6.9,9.49,4.32,13.81-6,4.32-6.47,10.36-.86,23.73-6,25.46-12.08-1.73-12.08-1.73Z"/><path class="cls-2" d="M189.31,129.9s-15.54-26.32-18.56-25.46-6.9,9.49-4.32,13.81,6,4.32,6.47,10.36.86,23.73,6,25.46S191,152.34,191,152.34Z"/><path class="cls-5" d="M240.58,28.5a5,5,0,0,0-1.21.7,5,5,0,0,0-1.21-.7c-20.61-8.1-53.74,28-53.74,28L186.64,150s0,14,2.21,20.61S219,197.07,222.71,200,233,202.22,233,202.22h12.72S252.36,203,256,200s31.65-22.82,33.86-29.44S292.11,150,292.11,150l2.21-93.49S261.19,20.41,240.58,28.5Z"/><path class="cls-6" d="M245.85,38.41s-1.29-10.79,2.16-16a58.56,58.56,0,0,1,6.47-8.2s2.59-6.9,6.47-8.63,9.93.86,15.54,3,15.1,3.45,20.28,8.2A15.27,15.27,0,0,1,302,27.19s6,9.93,6.9,14.67l.86,4.75s3.45,3.88,5.18,13.81,1.73,32.8.43,34.09-4.32,2.59-5.18,4.75-6.47,7.34-7.34,9.93S292.89,129,292.89,129s0-20.71-.86-24.17-1.73-20.28-1.73-20.28,1.29-15.54.43-17.69S279.94,49.2,276.92,46.61,266.13,35,245.85,38.41Z"/><path class="cls-4" d="M103,334.6c.57,3.4,15.43,101.74,22.06,131.42H235.64L190.22,189.09s-113,42.23-115.52,46,3.78,15.74,7.56,23.3S102.4,330.82,103,334.6Z"/><path class="cls-7" d="M76.58,239.51s-9.45,1.26-12,5.67-6.3,41.56-6.3,41.56-3.78-1.26-4.41,1.89-4.41,42.19-5.67,47.23-.63,18.89-3.78,21.41-5.67,24.56-5.67,24.56-8.19,12-8.82,17.63,1.89,22.67,1.89,22.67h82.5l4.41-29.6s-12.6-100.76-19.52-119.65S76.58,239.51,76.58,239.51Z"/><path class="cls-8" d="M261,314.49c-1.13-12.69-8.48-38.07-10.74-43.14S248,254.22,248,254.22H230.76s0,12.05-2.26,17.13-9.61,30.45-10.74,43.14,0,143.39,0,143.39H261S262.12,327.18,261,314.49Z"/><path class="cls-9" d="M255.26,223H223.49s-2.52,3.78-2.52,6.93,8.82,25.82,8.82,25.82H249s8.82-22.67,8.82-25.82S255.26,223,255.26,223Z"/><path class="cls-10" d="M245,40.57s2.16-9.93,8.63-12.51,12.08-4.75,20.71.86l9.06,10.79h-7.77s12.95,6.47,14.24,9.93c0,0-9.06-.86-10.79-1.29s-8.2-6.47-12.08-6.9S248.87,38.41,245,40.57Z"/><path class="cls-11" d="M257.19,7.37S250.43,0,244.29,0s-11.06,4.3-14.75,4.3S210.49-.61,201.28,8c0,0-13.52,6.76-18.43,11.06s-6.14,11.67-6.14,11.67-8,0-8,4.3a54.48,54.48,0,0,1-.61,8s-3.69,8.6-4.3,16.59,4.92,30.72,6.14,35.64,2.46,13.52,2.46,13.52l11.67,14.75s-.61-33.18-.61-36.25S189.6,59,189.6,59s9.22-.61,11.06.61,9.83-9.22,12.29-11.67,11.06-8,16.59-5.53S245,40.57,245,40.57Z"/><path class="cls-10" d="M229.54,42.39c5.53,2.46,15.45-1.82,15.45-1.82l.82-2.24c-.47-1-5.51-11.33-11.36-11.91-6.14-.61-19,2.46-19,2.46l4.92,3.69s-9.83,3.69-12.29,7.37l4.92,8C215.41,45.47,224,39.94,229.54,42.39Z"/><path class="cls-10" d="M249.85,114.3s2.57-3.86,4.71-4.28,7.71-.43,9.42-1.29,6.43-3.43,9-3.86,6.85-1.71,6.85-1.71l2.14,5.57s-6.43-.43-9,.43-9.42,3.43-9.42,3.43S250.7,114.73,249.85,114.3Z"/><path class="cls-10" d="M228.9,114.3s-2.57-3.86-4.71-4.28-7.71-.43-9.42-1.29-6.43-3.43-9-3.86-6.85-1.71-6.85-1.71l-2.14,5.57s6.43-.43,9,.43,9.42,3.43,9.42,3.43S228,114.73,228.9,114.3Z"/><path class="cls-12" d="M239.46,220.62s-21.41,32.75-22.92,34.64-26.71-43.62-28.22-48.66.39-19.17,3.4-30.5a37.19,37.19,0,0,0,10,23.19C211.54,209.37,239.46,220.62,239.46,220.62Z"/><path class="cls-12" d="M240.18,220.62s21.41,32.75,22.92,34.64,26.71-43.62,28.22-48.66-.39-19.17-3.4-30.5a37.19,37.19,0,0,1-10,23.19C268.1,209.37,240.18,220.62,240.18,220.62Z"/><path class="cls-13" d="M139.56,317c-.38,1.88,33,82,64.08,149.05h40.51c-14.19-79.84-37.77-212.22-40-222.72-1.73-8.33-6-15.9-10.6-32.46-3-10.88-6-22.95-6-22.95s-44.21,69.88-48.61,74.28l25.19,18.26S140.19,313.82,139.56,317Z"/><path class="cls-7" d="M401.67,239.51s9.45,1.26,12,5.67,6.3,41.56,6.3,41.56,3.78-1.26,4.41,1.89,4.41,42.19,5.67,47.23.63,18.89,3.78,21.41,5.67,24.56,5.67,24.56,8.19,12,8.82,17.63-1.89,22.67-1.89,22.67h-82.5l-4.41-29.6S372.07,291.78,379,272.88,401.67,239.51,401.67,239.51Z"/><path class="cls-13" d="M274.61,466c31.05-67,64.45-147.18,64.08-149.05-.63-3.15-24.56-36.53-24.56-36.53l25.19-18.26c-4.41-4.41-48.61-74.28-48.61-74.28s-3,12.06-6,22.95C280,227.4,275.8,235,274.07,243.3c-2.19,10.5-25.77,142.88-40,222.72Z"/><path class="cls-14" d="M448.27,399.46c-.63-5.67-8.82-17.63-8.82-17.63s-2.52-22-5.67-24.56-2.52-16.37-3.78-21.41-5-44.08-5.67-47.23-4.41-1.89-4.41-1.89-3.78-37.16-6.3-41.56c-1.75-3.07-6.85-4.61-9.8-5.26.42-2.05.42-3.76-.28-4.81-2.22-3.33-90-36.43-111-44.32l-1.83-2.88-.15.59c-.68-4.13-1.6-8.42-2.65-12.37,0,0,0,.74-.16,2v-4.25a11.31,11.31,0,0,0,2.15-3.29c1.46-4.39,2-12,2.12-16.66a14.09,14.09,0,0,0,7.77.16c5.18-1.73,5.61-19.42,6-25.46s3.88-6,6.47-10.36S311,105.3,308,104.44c-.9-.26-2.92,1.91-5.3,5.07l.12-.32c.86-2.59,6.47-7.77,7.34-9.93s3.88-3.45,5.18-4.75,1.29-24.17-.43-34.09-5.18-13.81-5.18-13.81l-.86-4.75C308,37.12,302,27.19,302,27.19a15.27,15.27,0,0,0-5.18-10.36c-5.18-4.75-14.67-6-20.28-8.2s-11.65-4.75-15.54-3c-2.46,1.09-4.39,4.25-5.49,6.43l1.72-4.67S250.43,0,244.29,0s-11.06,4.3-14.75,4.3S210.49-.61,201.28,8c0,0-13.52,6.76-18.43,11.06s-6.14,11.67-6.14,11.67-8,0-8,4.3a54.49,54.49,0,0,1-.61,8s-3.69,8.6-4.3,16.59,4.92,30.72,6.14,35.64c.69,2.75,1.38,6.65,1.85,9.56a1.39,1.39,0,0,0-1-.35c-3,.86-6.9,9.49-4.32,13.81s6,4.32,6.47,10.36.86,23.73,6,25.46a14.09,14.09,0,0,0,7.77-.16c.17,4.64.66,12.27,2.12,16.66a11.3,11.3,0,0,0,2.15,3.29V179c-.83,3.47-1.55,7.1-2.09,10.58l-.85.32-.5-2-1.83,2.88c-21,7.89-108.81,41-111,44.32-.7,1.05-.7,2.76-.28,4.81-2.95.66-8,2.2-9.8,5.26-2.52,4.41-6.3,41.56-6.3,41.56s-3.78-1.26-4.41,1.89-4.41,42.19-5.67,47.23-.63,18.89-3.78,21.41-5.67,24.56-5.67,24.56-8.19,12-8.82,17.63,1.89,22.67,1.89,22.67h82.5l1.24-8.29c3.53,21.25,7.06,41.31,9.49,52.18H353.16c2.43-10.87,6-30.93,9.49-52.18l1.24,8.29h82.5S448.9,405.13,448.27,399.46Z"/><rect class="cls-15" x="72.04" y="437.97" width="331.64" height="28.05"/><rect class="cls-16" x="109.17" y="440.8" width="25.32" height="25.08"/><rect class="cls-14" x="72.04" y="437.97" width="331.64" height="12.67"/><rect class="cls-16" x="336.29" y="440.8" width="25.32" height="25.08"/><path class="cls-17" d="M0,337.05,25,440.72H454.71l23.55-103.67S2.27,339.43,0,337.05Z"/><path class="cls-14" d="M47.53,440.72,150.15,338.1c-83,.06-149.31-.16-150.15-1L25,440.72Z"/><path class="cls-14" d="M418.94,337.32l-27.85,27.84Q353.26,403,315.37,440.72H454.71l23.55-103.67S455.08,337.17,418.94,337.32Z"/></g></g></g></svg>