<svg xmlns="http://www.w3.org/2000/svg" viewBox="0 0 478.25 500"><defs><style>.cls-1{isolation:isolate;}.cls-2{fill:#2c2c2c;}.cls-3{fill:#5c5c5c;}.cls-4{fill:#ccc;}.cls-5{fill:#4b4b4b;}.cls-6{fill:#393939;}.cls-7{fill:#353535;}.cls-8{fill:#6b6b6b;}.cls-9{fill:#3b3b3b;}.cls-10{fill:#d3d3d3;}.cls-11{fill:#f2f2f2;}.cls-12,.cls-13{fill:#054366;}.cls-12{opacity:0.5;mix-blend-mode:soft-light;}.cls-14{fill:#c0242d;}</style></defs><title>crews</title><g class="cls-1"><g id="Layer_2" data-name="Layer 2"><g id="Layer_1-2" data-name="Layer 1"><path class="cls-2" d="M281.27,200.82a36.19,36.19,0,0,1,16.13,6.27S301,156,296.5,130s-9.86-39.43-9.86-39.43S267.83,124.65,281.27,200.82Z"/><path class="cls-2" d="M198.56,200.82a36.19,36.19,0,0,0-16.13,6.27s-3.58-51.08.9-77.06,9.86-39.43,9.86-39.43S212,124.65,198.56,200.82Z"/><path class="cls-3" d="M312.39,194.32s-24.62-10.76-43.08-10.76a130.82,130.82,0,0,0-29.4,3.13,130.82,130.82,0,0,0-29.4-3.13c-18.46,0-43.08,10.76-43.08,10.76L162,352.42H317.86Z"/><path class="cls-3" d="M15.92,375H95c1.22-9.89,0-9.77,0-9.77L108.68,375h15.46c3.13-27.8,27.1-100.58,16.43-128.93-13.92-37-28.66-41.4-28.66-41.4s-49.87,11.29-68,47.65c-10.47,21-13.33,59.12-12,62.45C31.92,314.73,13.1,349.19,15.92,375Z"/><path class="cls-3" d="M463.9,375h-79c-1.22-9.89,0-9.77,0-9.77L371.15,375H355.69c-3.13-27.8-27.1-100.58-16.43-128.93,13.92-37,28.66-41.4,28.66-41.4s49.87,11.29,68,47.65c10.47,21,13.33,59.12,12,62.45C447.91,314.73,466.73,349.19,463.9,375Z"/><path class="cls-4" d="M353.86,293.46c-7.57-22.46-3.15-68.27,1.58-75.46s12.46-13.75,12.46-13.75-20.61-10.3-30.74-12.71c-13.44-3.19-34.71,1.06-34.71,1.06s-3,137.64-62.54,139c-59.54-1.34-62.54-139-62.54-139s-21.27-4.25-34.71-1.06c-10.13,2.41-30.74,12.71-30.74,12.71s7.74,6.56,12.46,13.75,9.15,53,1.58,75.46-32.79,62-32.79,62c5.56,43.43,25.37,78.27,25.37,78.27H361.28s19.8-34.84,25.37-78.27C386.65,355.43,361.42,315.91,353.86,293.46Z"/><path class="cls-5" d="M108.94,329c-8.13,14.5-15.76,26.46-15.76,26.46a206.4,206.4,0,0,0,4.08,22c22.68.24,110.09,1,142.66-.58,32.57,1.61,120,.82,142.66.58a206.32,206.32,0,0,0,4.08-22s-7.63-12-15.76-26.46c-42.92,1.1-114.13,3.14-131,3.62C223.07,332.11,151.85,330.07,108.94,329Z"/><path class="cls-6" d="M379.22,414.63c-32,.53-97.31.33-129.74-.06v-.45c-.36.11-3.84.21-9.57.31-5.73-.1-9.21-.21-9.57-.31v.45c-32.43.39-97.69.59-129.74.06a188.57,188.57,0,0,0,9.67,19.07H369.55A188.57,188.57,0,0,0,379.22,414.63Z"/><path class="cls-3" d="M284,150.64s9-2.69,12.55-9.86,0-27.78-5.38-29.57S280.37,122,284,150.64Z"/><path class="cls-3" d="M195.87,150.64s-9-2.69-12.55-9.86,0-27.78,5.38-29.57S199.45,122,195.87,150.64Z"/><path class="cls-3" d="M280.69,177l-40,5.68L199.16,177s-.6,20.26-.6,23.85,1.19,25.09,40.42,26.88h3.4c37.74-1.79,38.89-23.3,38.89-26.88S280.69,177,280.69,177Z"/><path class="cls-7" d="M240.58,19.44s13-10.56,10.81-14.77C249,.15,239.65-1.77,224.12,2c-7,1.71-28.84,13.32-38.44,27.65s-33.16,70.79-41.89,111.11-13.09,62.73-13.09,62.73-5.58,62.73-6.46,71.69,4.71,40.32.35,50.18a163.75,163.75,0,0,1-8.73,17s10.47-4.48,12.22-8.06c0,0,1.75,24.19-3.49,30.47s-14.83,9-14.83,9,14.83,0,20.07-2.69S140.3,363,142,351.36c0,0,1.75,14.34-.87,19.71s-10.47,10.75-14.83,10.75c0,0,16.58,9.86,34-1.79l-7,10.75s22.69-10.75,28.8-26,6.11-119.18,2.62-146.06S188,120.8,199.47,102.41Z"/><path class="cls-7" d="M239.24,19.44s6-16.65,13-18.44,32.29,14.34,41.89,28.67S327.31,100.46,336,140.78s13.09,62.73,13.09,62.73,5.58,62.73,6.46,71.69-4.71,40.32-.35,50.18a163.75,163.75,0,0,0,8.73,17s-10.47-4.48-12.22-8.06c0,0-1.75,24.19,3.49,30.47s14.83,9,14.83,9-14.83,0-20.07-2.69-10.47-8.06-12.22-19.71c0,0-1.75,14.34.87,19.71s10.47,10.75,14.83,10.75c0,0-16.58,9.86-34-1.79l7,10.75s-22.69-10.75-28.8-26S291.53,245.62,295,218.74s-3.15-97.95-14.66-116.33Z"/><path class="cls-8" d="M243,49.06h-6.19c-46.63.63-51.67,37.18-49.78,47.89s8.82,73.73,12,80,21.42,24.58,25.21,26.47c2.9,1.45,28.49,1.45,31.39,0,3.78-1.89,22.05-20.16,25.21-26.47s10.08-69.31,12-80S289.63,49.69,243,49.06Z"/><path class="cls-2" d="M242.37,154.29,243,160l14.49,3.15s4.41,1.89,5,4.41.63,15.75.63,15.75l3.15-4.41s3.11-15.69,1.26-17C261.16,157.26,242.37,154.29,242.37,154.29Z"/><path class="cls-2" d="M237.45,154.29l-.63,5.67-14.49,3.15s-4.41,1.89-5,4.41-.63,15.75-.63,15.75l-3.15-4.41s-3.11-15.69-1.26-17C218.66,157.26,237.45,154.29,237.45,154.29Z"/><path class="cls-2" d="M249.31,105.77a12.74,12.74,0,0,0,4.24,1c1.89,0,9.77-5.4,12.1-6.35s6.35-1.63,8.87-.37a72.58,72.58,0,0,1,6.93,4.41l1.05-3.9a31.48,31.48,0,0,0-9.67-4.21A12.05,12.05,0,0,0,262.65,99c-1.89,1.89-8.93,5.48-8.93,5.48Z"/><path class="cls-2" d="M230.52,105.77a12.74,12.74,0,0,1-4.24,1c-1.89,0-9.77-5.4-12.1-6.35s-6.35-1.63-8.87-.37a72.58,72.58,0,0,0-6.93,4.41l-1.05-3.9A31.48,31.48,0,0,1,207,96.39,12.05,12.05,0,0,1,217.18,99c1.89,1.89,8.93,5.48,8.93,5.48Z"/><path class="cls-9" d="M239.8,54.73s4.56,10.71,10.35,14.49,20-.63,27.67,8.19S292,95.69,293.27,103.25c0,0,3.22-28.36-.64-43.48s-27-41.59-53.42-40.33Z"/><path class="cls-9" d="M240,54.73s-4.56,10.71-10.35,14.49-20-.63-27.67,8.19-14.16,18.27-15.45,25.84c0,0-3.22-28.36.64-43.48s27-41.59,53.42-40.33Z"/><path class="cls-10" d="M240.37,362.44a2.39,2.39,0,0,1-.42,0,1.66,1.66,0,0,1-.39-.12,2,2,0,0,1-.68-.45,2.08,2.08,0,0,1-.62-1.48,2.23,2.23,0,0,1,0-.41,2.7,2.7,0,0,1,.12-.39,2.13,2.13,0,0,1,.19-.36,2.54,2.54,0,0,1,.26-.32,2.47,2.47,0,0,1,.32-.26,1.94,1.94,0,0,1,.36-.19,2,2,0,0,1,.39-.11,1.93,1.93,0,0,1,.81,0,2,2,0,0,1,.4.11,2.22,2.22,0,0,1,.36.19,2.43,2.43,0,0,1,.32.26,2.14,2.14,0,0,1,.62,1.49,2.3,2.3,0,0,1,0,.41,1.58,1.58,0,0,1-.12.39,1.92,1.92,0,0,1-.19.36,2,2,0,0,1-.26.32,1.93,1.93,0,0,1-.32.26,2.22,2.22,0,0,1-.36.19,1.67,1.67,0,0,1-.39.12A2.38,2.38,0,0,1,240.37,362.44Z"/><path class="cls-10" d="M241.25,358.42a2.1,2.1,0,0,1-1-2.78h0a2.1,2.1,0,0,1,2.77-1h0a2.11,2.11,0,0,1,1.05,2.78h0a2.11,2.11,0,0,1-1.92,1.23h0A2.15,2.15,0,0,1,241.25,358.42Zm1.74-3.84a2.09,2.09,0,0,1-1.06-2.77h0a2.09,2.09,0,0,1,2.77-1.06h0a2.1,2.1,0,0,1,1.06,2.77h0a2.09,2.09,0,0,1-1.92,1.24h0A2.06,2.06,0,0,1,243,354.58Zm1.72-3.85a2.09,2.09,0,0,1-1.07-2.76h0a2.1,2.1,0,0,1,2.76-1.08h0a2.1,2.1,0,0,1,1.07,2.77h0a2.1,2.1,0,0,1-1.92,1.25h0A2,2,0,0,1,244.72,350.73Zm1.7-3.85a2.1,2.1,0,0,1-1.08-2.77h0A2.1,2.1,0,0,1,248.1,343h0a2.1,2.1,0,0,1,1.08,2.76h0a2.1,2.1,0,0,1-1.92,1.26h0A2.15,2.15,0,0,1,246.42,346.89Zm1.69-3.86a2.09,2.09,0,0,1-1.09-2.76h0a2.1,2.1,0,0,1,2.76-1.09h0a2.09,2.09,0,0,1,1.09,2.76h0a2.09,2.09,0,0,1-1.92,1.27h0A2,2,0,0,1,248.11,343Zm1.67-3.87a2.11,2.11,0,0,1-1.1-2.76h0a2.09,2.09,0,0,1,2.75-1.1h0a2.09,2.09,0,0,1,1.1,2.76h0a2.09,2.09,0,0,1-1.92,1.27h0A2.12,2.12,0,0,1,249.78,339.15Zm1.66-3.87a2.09,2.09,0,0,1-1.11-2.75h0a2.1,2.1,0,0,1,2.75-1.12h0a2.11,2.11,0,0,1,1.11,2.75h0a2.11,2.11,0,0,1-1.93,1.28h0A2.11,2.11,0,0,1,251.44,335.28Zm1.64-3.88a2.09,2.09,0,0,1-1.13-2.74h0a2.1,2.1,0,0,1,2.75-1.13h0a2.1,2.1,0,0,1,1.13,2.75h0a2.09,2.09,0,0,1-1.93,1.28h0A2,2,0,0,1,253.09,331.4Zm1.63-3.88a2.1,2.1,0,0,1-1.13-2.74h0a2.11,2.11,0,0,1,2.75-1.13h0a2.1,2.1,0,0,1,1.13,2.74h0a2.11,2.11,0,0,1-1.94,1.3h0A2.14,2.14,0,0,1,254.72,327.52Zm1.62-3.89a2.09,2.09,0,0,1-1.15-2.74h0a2.1,2.1,0,0,1,2.74-1.14h0a2.1,2.1,0,0,1,1.14,2.73h0a2.1,2.1,0,0,1-1.94,1.31h0A2.05,2.05,0,0,1,256.34,323.63Zm1.6-3.9a2.1,2.1,0,0,1-1.16-2.73h0a2.09,2.09,0,0,1,2.73-1.16h0a2.1,2.1,0,0,1,1.16,2.73h0a2.12,2.12,0,0,1-1.95,1.32h0A2,2,0,0,1,257.93,319.73Zm1.57-3.91a2.11,2.11,0,0,1-1.17-2.73h0a2.11,2.11,0,0,1,2.73-1.17h0a2.11,2.11,0,0,1,1.17,2.73h0a2.11,2.11,0,0,1-1.95,1.32h0A2.15,2.15,0,0,1,259.5,315.82Zm1.57-3.91a2.1,2.1,0,0,1-1.19-2.72h0A2.11,2.11,0,0,1,262.6,308h0a2.1,2.1,0,0,1,1.18,2.72h0a2.08,2.08,0,0,1-1.95,1.33h0A2.07,2.07,0,0,1,261.07,311.91Zm1.54-3.91a2.1,2.1,0,0,1-1.2-2.71h0a2.1,2.1,0,0,1,2.71-1.2h0a2.11,2.11,0,0,1,1.2,2.71h0a2.11,2.11,0,0,1-2,1.34h0A2.21,2.21,0,0,1,262.61,308Zm1.51-3.92a2.1,2.1,0,0,1-1.21-2.71h0a2.09,2.09,0,0,1,2.71-1.22h0a2.09,2.09,0,0,1,1.21,2.71h0a2.09,2.09,0,0,1-2,1.36h0A2.18,2.18,0,0,1,264.13,304.07Zm1.5-3.93a2.1,2.1,0,0,1-1.23-2.71h0a2.09,2.09,0,0,1,2.7-1.22h0a2.1,2.1,0,0,1,1.23,2.7h0a2.1,2.1,0,0,1-2,1.37h0A2.05,2.05,0,0,1,265.63,300.14Zm1.47-3.95a2.1,2.1,0,0,1-1.25-2.69h0a2.1,2.1,0,0,1,2.7-1.25h0a2.09,2.09,0,0,1,1.24,2.69h0a2.1,2.1,0,0,1-2,1.37h0A2.17,2.17,0,0,1,267.1,296.19Zm1.45-4a2.1,2.1,0,0,1-1.27-2.68h0a2.1,2.1,0,0,1,2.69-1.27h0a2.09,2.09,0,0,1,1.27,2.68h0a2.11,2.11,0,0,1-2,1.39h0A2.17,2.17,0,0,1,268.55,292.23Zm1.42-4a2.09,2.09,0,0,1-1.28-2.67h0a2.09,2.09,0,0,1,2.67-1.28h0a2.1,2.1,0,0,1,1.29,2.67h0a2.11,2.11,0,0,1-2,1.41h0A2.1,2.1,0,0,1,270,288.26Zm1.4-4a2.11,2.11,0,0,1-1.32-2.66h0a2.11,2.11,0,0,1,2.67-1.31h0A2.09,2.09,0,0,1,274,283h0a2.09,2.09,0,0,1-2,1.42h0A2.14,2.14,0,0,1,271.37,284.29Zm1.36-4a2.1,2.1,0,0,1-1.33-2.65h0a2.09,2.09,0,0,1,2.65-1.33h0a2.09,2.09,0,0,1,1.33,2.65h0a2.1,2.1,0,0,1-2,1.44h0A2,2,0,0,1,272.73,280.3Zm1.32-4a2.1,2.1,0,0,1-1.37-2.64h0a2.11,2.11,0,0,1,2.64-1.37h0a2.1,2.1,0,0,1,1.36,2.64h0a2.09,2.09,0,0,1-2,1.46h0A2.08,2.08,0,0,1,274.05,276.31Zm1.27-4a2.1,2.1,0,0,1-1.39-2.62h0a2.09,2.09,0,0,1,2.62-1.4h0a2.11,2.11,0,0,1,1.4,2.62h0a2.11,2.11,0,0,1-2,1.49h0A2.31,2.31,0,0,1,275.33,272.29Zm1.23-4a2.09,2.09,0,0,1-1.43-2.6h0a2.1,2.1,0,0,1,2.6-1.43h0a2.1,2.1,0,0,1,1.43,2.6h0a2.09,2.09,0,0,1-2,1.51h0A2,2,0,0,1,276.56,268.26Zm1.17-4a2.1,2.1,0,0,1-1.46-2.58h0a2.09,2.09,0,0,1,2.57-1.47h0a2.1,2.1,0,0,1,1.47,2.57h0a2.11,2.11,0,0,1-2,1.55h0A2.15,2.15,0,0,1,277.73,264.22Zm1.12-4.06a2.1,2.1,0,0,1-1.51-2.56h0a2.09,2.09,0,0,1,2.55-1.51h0a2.1,2.1,0,0,1,1.51,2.56h0a2.11,2.11,0,0,1-2,1.58h0A2.24,2.24,0,0,1,278.85,260.16Zm1-4.08a2.1,2.1,0,0,1-1.55-2.53h0a2.09,2.09,0,0,1,2.53-1.55h0a2.09,2.09,0,0,1,1.55,2.52h0a2.1,2.1,0,0,1-2,1.61h0A2,2,0,0,1,279.88,256.08Zm1-4.1a2.09,2.09,0,0,1-1.59-2.5h0a2.09,2.09,0,0,1,2.5-1.6h0a2.1,2.1,0,0,1,1.6,2.5h0a2.11,2.11,0,0,1-2,1.64h0A2.25,2.25,0,0,1,280.86,252Zm.92-4.11a2.1,2.1,0,0,1-1.64-2.48h0a2.1,2.1,0,0,1,2.48-1.63h0a2.09,2.09,0,0,1,1.63,2.48h0a2.1,2.1,0,0,1-2.06,1.68h0A1.82,1.82,0,0,1,281.78,247.87Zm.85-4.12A2.1,2.1,0,0,1,281,241.3h0a2.1,2.1,0,0,1,2.45-1.67h0a2.09,2.09,0,0,1,1.67,2.45h0a2.1,2.1,0,0,1-2.06,1.71h0A2.11,2.11,0,0,1,282.63,243.75Zm.79-4.14a2.1,2.1,0,0,1-1.71-2.43h0a2.09,2.09,0,0,1,2.43-1.7h0a2.09,2.09,0,0,1,1.7,2.43h0a2.1,2.1,0,0,1-2.07,1.74h0A1.7,1.7,0,0,1,283.42,239.62Zm.71-4.15a2.1,2.1,0,0,1-1.74-2.4h0a2.1,2.1,0,0,1,2.4-1.74h0a2.1,2.1,0,0,1,1.74,2.4h0a2.1,2.1,0,0,1-2.07,1.77h0Zm.66-4.16a2.07,2.07,0,0,1-1.78-2.37h0a2.09,2.09,0,0,1,2.37-1.78h0a2.1,2.1,0,0,1,1.78,2.38h0a2.1,2.1,0,0,1-2.07,1.8h0Zm.59-4.16a2.1,2.1,0,0,1-1.82-2.35h0a2.09,2.09,0,0,1,2.34-1.81h0a2.09,2.09,0,0,1,1.82,2.34h0a2.1,2.1,0,0,1-2.08,1.83h0Zm.53-4.18a2.1,2.1,0,0,1-1.86-2.32h0a2.09,2.09,0,0,1,2.31-1.85h0a2.1,2.1,0,0,1,1.86,2.31h0a2.09,2.09,0,0,1-2.08,1.87h-.23Zm.46-4.19a2.1,2.1,0,0,1-1.89-2.29h0a2.1,2.1,0,0,1,2.29-1.89h0a2.1,2.1,0,0,1,1.89,2.29h0a2.1,2.1,0,0,1-2.09,1.9h-.2Zm.4-4.19a2.09,2.09,0,0,1-1.93-2.25h0a2.1,2.1,0,0,1,2.25-1.92h0a2.1,2.1,0,0,1,1.92,2.25h0a2.09,2.09,0,0,1-2.09,1.93h-.16Zm.33-4.19a2.09,2.09,0,0,1-2-2.23h0a2.1,2.1,0,0,1,2.23-2h0a2.1,2.1,0,0,1,2,2.23h0a2.11,2.11,0,0,1-2.1,2h-.13Zm.26-4.2a2.09,2.09,0,0,1-2-2.19h0a2.09,2.09,0,0,1,2.19-2h0a2.09,2.09,0,0,1,2,2.19h0a2.09,2.09,0,0,1-2.09,2h-.1Zm.19-4.2a2.09,2.09,0,0,1-2-2.15h0a2.1,2.1,0,0,1,2.15-2h0a2.1,2.1,0,0,1,2,2.15h0a2.1,2.1,0,0,1-2.1,2h-.07Zm.12-4.21a2.1,2.1,0,0,1-2.08-2.11h0a2.1,2.1,0,0,1,2.12-2.08h0a2.09,2.09,0,0,1,2.07,2.11h0a2.09,2.09,0,0,1-2.1,2.07h0Zm-2.08-6.28h0a2.1,2.1,0,0,1,2.07-2.12h0a2.1,2.1,0,0,1,2.12,2.08h0a2.09,2.09,0,0,1-2.07,2.11h0A2.1,2.1,0,0,1,285.6,191.5Zm-.09-4.15a2.08,2.08,0,0,1,2-2.17h0a2.1,2.1,0,0,1,2.17,2h0a2.09,2.09,0,0,1-2,2.16h-.07A2.09,2.09,0,0,1,285.51,187.34Z"/><path class="cls-10" d="M287.38,185.26a2.09,2.09,0,0,1-1.48-.62,2.55,2.55,0,0,1-.27-.32,2.15,2.15,0,0,1-.19-.36,2.1,2.1,0,0,1-.12-.39,1.82,1.82,0,0,1,0-.42,1.67,1.67,0,0,1,0-.4,2,2,0,0,1,.12-.4,3,3,0,0,1,.2-.36,2.26,2.26,0,0,1,.58-.58,2.16,2.16,0,0,1,.36-.19l.39-.12a2.32,2.32,0,0,1,.82,0l.4.12a2.15,2.15,0,0,1,.36.19,1.93,1.93,0,0,1,.31.26,2,2,0,0,1,.26.32,2.23,2.23,0,0,1,.19.36,1.57,1.57,0,0,1,.12.4,2.2,2.2,0,0,1,0,.4,2.41,2.41,0,0,1,0,.42,2.09,2.09,0,0,1-.11.39,2.21,2.21,0,0,1-.2.36,2.1,2.1,0,0,1-.58.58,1.78,1.78,0,0,1-.35.19,2.41,2.41,0,0,1-.4.12A2.3,2.3,0,0,1,287.38,185.26Z"/><path class="cls-10" d="M239.45,362.44a2.08,2.08,0,0,1-1.48-.62,2.06,2.06,0,0,1-.62-1.49,2.22,2.22,0,0,1,0-.4,1.92,1.92,0,0,1,.11-.39,3.1,3.1,0,0,1,.2-.36,2,2,0,0,1,.26-.32,2,2,0,0,1,.68-.45l.39-.12a2.13,2.13,0,0,1,1.89.58,2,2,0,0,1,.26.32,2.88,2.88,0,0,1,.2.36,2,2,0,0,1,.12.39,2.29,2.29,0,0,1,0,.4,2.47,2.47,0,0,1,0,.42,2.06,2.06,0,0,1-.12.39,1.86,1.86,0,0,1-.2.36,2,2,0,0,1-.26.32,2.3,2.3,0,0,1-.31.26,2.23,2.23,0,0,1-.36.19,1.61,1.61,0,0,1-.39.12A2.23,2.23,0,0,1,239.45,362.44Z"/><path class="cls-10" d="M235.79,357.38h0a2.1,2.1,0,0,1,1-2.78h0a2.1,2.1,0,0,1,2.78,1h0a2.1,2.1,0,0,1-1,2.78h0a2.15,2.15,0,0,1-.86.19h0A2.11,2.11,0,0,1,235.79,357.38Zm-1.74-3.86a2.1,2.1,0,0,1,1.06-2.77h0a2.1,2.1,0,0,1,2.77,1.06h0a2.1,2.1,0,0,1-1.06,2.77h0a2.1,2.1,0,0,1-.86.18h0A2.09,2.09,0,0,1,234.06,353.52Zm-1.72-3.86a2.09,2.09,0,0,1,1.07-2.76h0a2.1,2.1,0,0,1,2.77,1.07h0a2.1,2.1,0,0,1-1.07,2.76h0a2.1,2.1,0,0,1-.85.18h0A2.11,2.11,0,0,1,232.34,349.67Zm-1.7-3.87a2.1,2.1,0,0,1,1.09-2.76h0a2.1,2.1,0,0,1,2.76,1.08h0a2.1,2.1,0,0,1-1.09,2.76h0a2,2,0,0,1-.84.18h0A2.1,2.1,0,0,1,230.64,345.8ZM229,341.93h0a2.1,2.1,0,0,1,1.09-2.76h0a2.1,2.1,0,0,1,2.76,1.09h0a2.11,2.11,0,0,1-1.09,2.76h0a2.12,2.12,0,0,1-.83.17h0A2.09,2.09,0,0,1,229,341.93Zm-1.68-3.88a2.11,2.11,0,0,1,1.1-2.76h0a2.1,2.1,0,0,1,2.75,1.1h0a2.1,2.1,0,0,1-1.1,2.76h0a2.11,2.11,0,0,1-.82.17h0A2.11,2.11,0,0,1,227.28,338.05Zm-1.65-3.88a2.1,2.1,0,0,1,1.11-2.75h0a2.1,2.1,0,0,1,2.75,1.12h0a2.1,2.1,0,0,1-1.12,2.75h0a2,2,0,0,1-.81.16h0A2.1,2.1,0,0,1,225.63,334.17ZM224,330.28a2.1,2.1,0,0,1,1.13-2.75h0a2.09,2.09,0,0,1,2.75,1.13h0a2.1,2.1,0,0,1-1.13,2.75h0a2.13,2.13,0,0,1-.81.16h0A2.1,2.1,0,0,1,224,330.28Zm-1.62-3.9h0a2.1,2.1,0,0,1,1.13-2.74h0a2.1,2.1,0,0,1,2.74,1.13h0a2.1,2.1,0,0,1-1.13,2.74h0a2.14,2.14,0,0,1-.8.16h0A2.11,2.11,0,0,1,222.36,326.38Zm-1.61-3.91a2.09,2.09,0,0,1,1.15-2.73h0a2.1,2.1,0,0,1,2.74,1.14h0a2.1,2.1,0,0,1-1.14,2.74h0a2.09,2.09,0,0,1-.8.16h0A2.11,2.11,0,0,1,220.75,322.48Zm-1.59-3.91a2.09,2.09,0,0,1,1.16-2.73h0a2.1,2.1,0,0,1,2.73,1.16h0a2.1,2.1,0,0,1-1.16,2.73h0a2,2,0,0,1-.79.15h0A2.09,2.09,0,0,1,219.16,318.57Zm-1.57-3.91a2.09,2.09,0,0,1,1.17-2.73h0a2.11,2.11,0,0,1,2.73,1.18h0a2.09,2.09,0,0,1-1.17,2.72h0a2.14,2.14,0,0,1-.77.15h0A2.09,2.09,0,0,1,217.59,314.65ZM216,310.72a2.1,2.1,0,0,1,1.19-2.72h0a2.09,2.09,0,0,1,2.71,1.19h0a2.09,2.09,0,0,1-1.18,2.71h0a2.07,2.07,0,0,1-.76.15h0A2.1,2.1,0,0,1,216,310.72Zm-1.53-3.93a2.09,2.09,0,0,1,1.2-2.71h0a2.1,2.1,0,0,1,2.71,1.2h0a2.12,2.12,0,0,1-1.2,2.72h0a2.25,2.25,0,0,1-.76.14h0A2.1,2.1,0,0,1,214.5,306.79ZM213,302.85h0a2.1,2.1,0,0,1,1.22-2.71h0a2.1,2.1,0,0,1,2.71,1.22h0a2.1,2.1,0,0,1-1.22,2.71h0a2.13,2.13,0,0,1-.74.14h0A2.11,2.11,0,0,1,213,302.85Zm-1.49-3.95a2.09,2.09,0,0,1,1.23-2.7h0a2.1,2.1,0,0,1,2.71,1.22h0a2.11,2.11,0,0,1-1.23,2.71h0a2.08,2.08,0,0,1-.73.13h0A2.09,2.09,0,0,1,211.5,298.91Zm-1.47-4h0a2.1,2.1,0,0,1,1.25-2.69h0a2.09,2.09,0,0,1,2.69,1.24h0a2.1,2.1,0,0,1-1.24,2.7h0a2.22,2.22,0,0,1-.72.12h0A2.11,2.11,0,0,1,210,294.94Zm-1.44-4a2.09,2.09,0,0,1,1.27-2.68h0a2.09,2.09,0,0,1,2.68,1.27h0a2.09,2.09,0,0,1-1.27,2.68h0a2,2,0,0,1-.71.12h0A2.08,2.08,0,0,1,208.59,291Zm-1.41-4h0a2.09,2.09,0,0,1,1.28-2.67h0a2.1,2.1,0,0,1,2.68,1.28h0a2.1,2.1,0,0,1-1.29,2.67h0a2.05,2.05,0,0,1-.69.12h0A2.1,2.1,0,0,1,207.17,287Zm-1.38-4a2.09,2.09,0,0,1,1.31-2.66h0a2.1,2.1,0,0,1,2.66,1.31h0a2.11,2.11,0,0,1-1.31,2.66h0a2.16,2.16,0,0,1-.68.11h0A2.1,2.1,0,0,1,205.79,283Zm-1.35-4a2.1,2.1,0,0,1,1.34-2.65h0a2.09,2.09,0,0,1,2.65,1.33h0a2.1,2.1,0,0,1-1.33,2.65h0a2.06,2.06,0,0,1-.66.11h0A2.11,2.11,0,0,1,204.44,279Zm-1.31-4a2.11,2.11,0,0,1,1.37-2.64h0a2.11,2.11,0,0,1,2.64,1.37h0a2.11,2.11,0,0,1-1.37,2.64h0a2.16,2.16,0,0,1-.63.1h0A2.1,2.1,0,0,1,203.13,274.94Zm-1.26-4h0a2.11,2.11,0,0,1,1.39-2.62h0a2.1,2.1,0,0,1,2.62,1.4h0a2.11,2.11,0,0,1-1.4,2.62h0a2.19,2.19,0,0,1-.61.09h0A2.1,2.1,0,0,1,201.88,270.89Zm-1.21-4.06h0a2.09,2.09,0,0,1,1.42-2.6h0a2.11,2.11,0,0,1,2.61,1.43h0a2.09,2.09,0,0,1-1.42,2.6h0a2.08,2.08,0,0,1-.58.08h0A2.09,2.09,0,0,1,200.67,266.83Zm-1.15-4.08h0a2.1,2.1,0,0,1,1.46-2.58h0a2.1,2.1,0,0,1,2.58,1.47h0a2.11,2.11,0,0,1-1.47,2.58h0a2.14,2.14,0,0,1-.55.07h0A2.09,2.09,0,0,1,199.52,262.75Zm-1.09-4.1h0a2.09,2.09,0,0,1,1.51-2.55h0a2.09,2.09,0,0,1,2.56,1.51h0a2.11,2.11,0,0,1-1.51,2.56h0a2.3,2.3,0,0,1-.52.07h0A2.1,2.1,0,0,1,198.43,258.65Zm-1-4.12A2.09,2.09,0,0,1,199,252h0a2.1,2.1,0,0,1,2.53,1.55h0a2.1,2.1,0,0,1-1.55,2.53h0a2,2,0,0,1-.49.06h0A2.1,2.1,0,0,1,197.41,254.53Zm-1-4.13a2.1,2.1,0,0,1,1.59-2.51h0a2.1,2.1,0,0,1,2.51,1.59h0A2.1,2.1,0,0,1,199,252h0a2.12,2.12,0,0,1-.45,0h0A2.09,2.09,0,0,1,196.46,250.4Zm-.9-4.15a2.1,2.1,0,0,1,1.64-2.48h0a2.09,2.09,0,0,1,2.48,1.63h0a2.1,2.1,0,0,1-1.63,2.48h0a2.56,2.56,0,0,1-.43,0h0A2.11,2.11,0,0,1,195.56,246.25Zm-.82-4.16h0a2.1,2.1,0,0,1,1.67-2.45h0a2.1,2.1,0,0,1,2.46,1.67h0a2.1,2.1,0,0,1-1.67,2.45h0a2.27,2.27,0,0,1-.39,0h0A2.11,2.11,0,0,1,194.74,242.08Zm-.76-4.18h0a2.1,2.1,0,0,1,1.71-2.43h0a2.11,2.11,0,0,1,2.43,1.71h0a2.1,2.1,0,0,1-1.71,2.43h0a1.83,1.83,0,0,1-.36,0h0A2.09,2.09,0,0,1,194,237.91Zm-.69-4.18a2.09,2.09,0,0,1,1.74-2.4h0a2.09,2.09,0,0,1,2.39,1.74h0a2.1,2.1,0,0,1-1.74,2.4h0l-.33,0h0A2.09,2.09,0,0,1,193.29,233.73Zm-.63-4.19h0a2.1,2.1,0,0,1,1.78-2.38h0a2.1,2.1,0,0,1,2.38,1.78h0a2.1,2.1,0,0,1-1.78,2.38h0l-.3,0h0A2.1,2.1,0,0,1,192.66,229.53Zm-.57-4.2h0a2.1,2.1,0,0,1,1.82-2.34h0a2.09,2.09,0,0,1,2.34,1.82h0a2.1,2.1,0,0,1-1.82,2.34h0l-.26,0h0A2.1,2.1,0,0,1,192.09,225.33Zm-.5-4.22a2.1,2.1,0,0,1,1.86-2.31h0a2.1,2.1,0,0,1,2.32,1.85h0a2.1,2.1,0,0,1-1.85,2.32h-.23A2.1,2.1,0,0,1,191.59,221.11Zm-.43-4.22h0a2.1,2.1,0,0,1,1.89-2.29h0a2.11,2.11,0,0,1,2.29,1.89h0a2.1,2.1,0,0,1-1.89,2.29h-.21A2.09,2.09,0,0,1,191.16,216.89Zm-.37-4.23a2.1,2.1,0,0,1,1.93-2.25h0a2.09,2.09,0,0,1,2.26,1.92h0a2.1,2.1,0,0,1-1.93,2.25h-.16A2.1,2.1,0,0,1,190.79,212.67Zm-.3-4.23a2.1,2.1,0,0,1,2-2.23h0a2.1,2.1,0,0,1,2.23,2h0a2.1,2.1,0,0,1-2,2.22h-.13A2.1,2.1,0,0,1,190.49,208.44Zm-.23-4.24a2.08,2.08,0,0,1,2-2.19h0a2.1,2.1,0,0,1,2.2,2h0a2.1,2.1,0,0,1-2,2.19h-.09A2.1,2.1,0,0,1,190.26,204.2Zm-.16-4.24a2.09,2.09,0,0,1,2-2.15h0a2.1,2.1,0,0,1,2.16,2h0a2.1,2.1,0,0,1-2,2.15h-.07A2.1,2.1,0,0,1,190.11,200Zm-.08-4.24h0a2.1,2.1,0,0,1,2.08-2.12h0a2.1,2.1,0,0,1,2.11,2.08h0a2.09,2.09,0,0,1-2.08,2.11h0A2.09,2.09,0,0,1,190,195.71Zm2.07-2.14a2.1,2.1,0,0,1-2.07-2.11h0a2.11,2.11,0,0,1,2.12-2.08h0a2.1,2.1,0,0,1,2.07,2.12h0a2.09,2.09,0,0,1-2.1,2.07h0ZM190,191.45h0Zm2.12-2.08a2.11,2.11,0,0,1-2-2.18h0a2.1,2.1,0,0,1,2.17-2h0a2.1,2.1,0,0,1,2,2.17h0a2.11,2.11,0,0,1-2.1,2h-.07Z"/><path class="cls-10" d="M192.44,185.26a2.08,2.08,0,0,1-1.48-.62,2.05,2.05,0,0,1-.62-1.48,1.69,1.69,0,0,1,0-.41,2,2,0,0,1,.11-.4,1.74,1.74,0,0,1,.2-.36,2,2,0,0,1,.26-.32,1.53,1.53,0,0,1,.31-.25,1.7,1.7,0,0,1,.36-.2,2.29,2.29,0,0,1,.4-.11,2,2,0,0,1,.82,0,2,2,0,0,1,.39.11,1.53,1.53,0,0,1,.36.2,1.9,1.9,0,0,1,.32.25,2.12,2.12,0,0,1,.62,1.49,2.48,2.48,0,0,1,0,.41,1.64,1.64,0,0,1-.12.39,2.15,2.15,0,0,1-.19.36,2.1,2.1,0,0,1-.58.58,1.85,1.85,0,0,1-.36.19,1.63,1.63,0,0,1-.39.12A2.3,2.3,0,0,1,192.44,185.26Z"/><circle class="cls-11" cx="239.91" cy="410.76" r="54.05"/><circle class="cls-10" cx="239.91" cy="410.76" r="44.16"/><circle class="cls-11" cx="239.91" cy="410.76" r="27.83"/><path class="cls-12" d="M447.91,314.73c1.35-3.33-1.51-41.46-12-62.45-18.14-36.36-68-47.65-68-47.65a7.44,7.44,0,0,0-.86.35l.84-.74s-10.7-5.35-20.47-9.24c-2-9.95-5.81-28.4-11.39-54.22C327.31,100.46,303.75,44,294.15,29.67S259.24-.8,252.26,1a7.7,7.7,0,0,0-2.83,1.52c-4-2.87-12.56-3.61-25.32-.5-7,1.71-28.84,13.32-38.44,27.65s-33.16,70.79-41.89,111.11c-5.59,25.82-9.38,44.27-11.39,54.22-9.77,3.89-20.47,9.24-20.47,9.24l.84.74a7.44,7.44,0,0,0-.86-.35s-49.87,11.29-68,47.65c-10.47,21-13.33,59.12-12,62.45,0,0-18.82,34.47-16,60.23H95c.3-2.43.45-4.25.51-5.62.17.85.34,1.69.52,2.52l.19.89q.45,2.06.93,4.08c0,.2.09.4.14.6h0a247.46,247.46,0,0,0,12.28,37.32l-8.94-.12a188.56,188.56,0,0,0,9.67,19.07H191a54,54,0,0,0,97.88,0h80.7a188.55,188.55,0,0,0,9.67-19.07l-8.94.12a247.46,247.46,0,0,0,12.28-37.32h0c0-.19.09-.4.13-.59q.48-2,.93-4.1l.19-.88c.18-.84.35-1.68.52-2.52.06,1.37.21,3.19.51,5.62h79C466.73,349.19,447.91,314.73,447.91,314.73Z"/><rect class="cls-13" x="72.04" y="471.95" width="331.64" height="28.05"/><rect class="cls-11" x="109.17" y="474.78" width="25.32" height="25.08"/><rect class="cls-12" x="72.04" y="471.95" width="331.64" height="12.67"/><rect class="cls-11" x="336.29" y="474.78" width="25.32" height="25.08"/><path class="cls-14" d="M0,371,25,474.7H454.71L478.25,371S2.27,373.41,0,371Z"/><path class="cls-12" d="M47.53,474.7,150.15,372.08c-83,.06-149.31-.16-150.15-1L25,474.7Z"/><path class="cls-12" d="M418.94,371.3l-27.85,27.84Q353.26,437,315.37,474.7H454.71L478.25,371S455.08,371.15,418.94,371.3Z"/></g></g></g></svg>