<svg xmlns="http://www.w3.org/2000/svg" xmlns:xlink="http://www.w3.org/1999/xlink" viewBox="0 0 478.25 475.01"><defs><style>.cls-1{fill:none;}.cls-2{isolation:isolate;}.cls-3{fill:#969696;}.cls-4{fill:#a1a1a1;}.cls-5{fill:#575757;}.cls-6{fill:#5c5c5c;}.cls-7{fill:#555;}.cls-8{fill:#505050;}.cls-9{fill:#b0b0b0;}.cls-10{fill:#454545;}.cls-11{fill:#4a4a4a;}.cls-12{fill:#444;}.cls-13{fill:#3c3c3c;}.cls-14{clip-path:url(#clip-path);}.cls-15{fill:#797979;}.cls-16{fill:#bcbcbc;}.cls-17,.cls-18{fill:#054366;}.cls-17{opacity:0.5;mix-blend-mode:soft-light;}.cls-19{fill:#f2f2f2;}.cls-20{fill:#c0242d;}</style><clipPath id="clip-path"><path class="cls-1" d="M245.37,258.06c-1.16-2.7-2.31-9.73-2.6-11.57h.8v-1.22l12-17-8.45-10.68h-16l-8.45,10.68,12,17v1.22h.8c-.29,1.83-1.44,8.87-2.6,11.57-1.33,3.11-13.79,54.72-13.79,93.42h40.06C259.16,312.78,246.7,261.17,245.37,258.06Z"/></clipPath></defs><title>douglas</title><g class="cls-2"><g id="Layer_2" data-name="Layer 2"><g id="Layer_1-2" data-name="Layer 1"><path class="cls-3" d="M288.54,149s6.94-1.46,10.59-7.3,5.84-17.53,4.75-23-1.46-15-.73-17.89-3.65-7.67-9.86-3.29S288.54,149,288.54,149Z"/><path class="cls-3" d="M190.51,149s-6.94-1.46-10.59-7.3-5.84-17.53-4.75-23,1.46-15,.73-17.89,3.65-7.67,9.86-3.29S190.51,149,190.51,149Z"/><path class="cls-3" d="M198.16,180V206s16.63,22,40.71,22.58h.9C264.26,228,280.89,206,280.89,206V180Z"/><path class="cls-4" d="M294,50c-4.75-11-23-23.74-47.84-16.8l-2.47.68,0,1.14c-.42-.22-.93-.47-1.5-.73l1.52-.41.05-2.14s-1.87.7-3.92,1.53c-2-.83-3.76-1.53-3.76-1.53l.06,2.36,1,.28-1,.46,0-.73-3.27-.9C208,26.3,189.78,39.08,185,50s-1.46,45.28,0,62.44,3.65,44.55,5.48,52.95,5.84,16.07,8.76,17.53,14.61,9.86,19,13.15c2.11,1.58,7.38,5.11,11,5.84,2.85.57,17.66.56,20.47,0,3.65-.73,8.92-4.26,11-5.84,4.38-3.29,16.07-11.69,19-13.15s6.94-9.13,8.76-17.53,4-35.79,5.48-52.95S298.77,61,294,50Z"/><path class="cls-5" d="M305.34,71.94s0-18.26-.37-21.54-2.56-8-2.92-9.49-8-12.42-8-12.42a21,21,0,0,0-9.57-6.84,7.15,7.15,0,0,1,1.62-3.5c-1.48-1.48-8.89,0-8.89,0v-3.7c-2.59.74-5.09,4.14-5.09,4.14l-2.18,28.52a43.36,43.36,0,0,1,11.26,5.76h-3.79a30,30,0,0,1,3.85,4.46l-2.43-.91s3.81,5.42,4.86,9.13c.72,2.53,2,9.67,2.68,14.05a32.6,32.6,0,0,1-.37,9.86l7.3,29.58s2.19-8.76,2.19-10.22,5.84-7.3,6.57-8.4,2.19-14.61,2.19-16.8,1.83-5.48,1.83-5.48Z"/><path class="cls-6" d="M175.67,40.49c-1.45,2.34-3.31,11-3.31,11s-2.59,1.11-3.33,2.59-1.85,11.85-1.85,14.08c0,0-2.22,5.19-2.22,7.78s1.11,10.74,1.11,10.74l4.44,5.19c2.22,2.59,6.3,8.89,7,11.11s8.15,19.63,8.15,19.63.74-19.63,1.11-22.6,4.07-15.56,4.07-15.56L191.25,63s5.56-10,8.52-10.74c0,0,1.27-1,3.26-2.32-6.23-1.38-19.58-4.5-24.44-6.93A8.28,8.28,0,0,1,175.67,40.49Z"/><path class="cls-7" d="M272,14.82c-1.48-2.59-4.82-9.63-6.3-10.37s.37,2.59.37,2.59-13.34-5.93-23.71-7l2.22,2.22s-21.11,2.59-29.26,5.56-31.86,20.37-33,23l.37,3.7s-5.19,4.45-6.67,5.56a1.8,1.8,0,0,0-.4.48A8.28,8.28,0,0,0,178.59,43c4.86,2.43,18.21,5.55,24.44,6.93,4.9-3.35,14.17-9.16,19.71-9.16,7.78,0,26.67-1.48,31.12,0s16.3,3.33,16.3,3.33,4.07-4.07,4.07-8.52V28.89S273.48,17.41,272,14.82Z"/><path class="cls-8" d="M231.74,111.27l-.09-3.58-16.3-5.09-11.12,2.09-6.33,6.52,3.12,2s4.41-4.94,5.63-5.42c2.35-.93,9.65-1.16,9.65-1.16Z"/><path class="cls-8" d="M247.31,111.27l.09-3.58c.71,0,15.22-5.09,15.22-5.09l12.2,2.09,6.33,6.52-3.12,2s-4.41-4.94-5.63-5.42c-2.35-.93-9.65-1.16-9.65-1.16Z"/><path class="cls-8" d="M267.36,42.73s-6.57-13.51-15.7-16.8A52.64,52.64,0,0,0,233.77,23s5.48.73,7.3,2.56c0,0-18.26-1.83-22.64-1.1L222.08,27s-6.94-.37-10.59,2.56c0,0-13.51,3.65-16.8,7.67l4.38.73s-11.32,2.92-13.15,4,6.94-.73,6.94-.73-10.22,4-12.05,6.94l9.13-.73s-7.3,5.11-9.13,7.67c0,0,12.78-2.19,21.54-2.19,5.23,0,12.83-.29,12.83-.29l-4.07-1.9,6.87.64-4.31-2.47,12.47,2.66-.5-1.74,6.29.91-1.1-2.56,7.26-.22-3.61-2.34,8.84,1.71-1.17-1.71,6.21.73,3.68-2.25.71,1.16S265.17,42.73,267.36,42.73Z"/><polygon class="cls-9" points="292.76 206.62 239.13 219.71 185.5 206.62 174.56 382.16 236.67 382.16 241.58 382.16 303.69 382.16 292.76 206.62"/><path class="cls-10" d="M411.94,255.08a17.57,17.57,0,0,1,9.64,14.54c.69,10.57-2.07,24.45-1.38,27.75s9,35,13.09,53.52,5.51,27.75,5.51,27.75H366.49l9-86.55Z"/><path class="cls-10" d="M66.31,255.08a17.57,17.57,0,0,0-9.64,14.54C56,280.18,58.73,294.06,58,297.36s-9,35-13.09,53.52-5.51,27.75-5.51,27.75h72.32l-9-86.55Z"/><path class="cls-11" d="M305.88,216.09s51,15.86,65.43,21.14S414.7,256.4,414.7,256.4s-20,47.57-23.42,54.84-13.09,70-13.09,70H290.73Z"/><path class="cls-11" d="M172.38,216.09s-51,15.86-65.43,21.14S63.55,256.4,63.55,256.4,83.53,304,87,311.24s13.09,70,13.09,70h87.47Z"/><polygon class="cls-12" points="255.6 228.25 247.15 217.57 243.56 217.57 234.69 217.57 231.11 217.57 222.66 228.25 234.69 245.27 234.69 246.49 235.56 246.49 242.7 246.49 243.56 246.49 243.56 245.27 255.6 228.25"/><path class="cls-13" d="M245.37,258.06c-1.33-3.11-2.67-12-2.67-12h-7.14s-1.33,8.9-2.67,12-13.79,54.72-13.79,93.42h40.06C259.16,312.78,246.7,261.17,245.37,258.06Z"/><g class="cls-14"><rect class="cls-15" x="194.09" y="272.21" width="81.53" height="3.62" transform="translate(-125.97 267.45) rotate(-48.36)"/><rect class="cls-15" x="191.65" y="271.2" width="81.53" height="0.72" transform="translate(-124.97 265.09) rotate(-48.4)"/><rect class="cls-15" x="190.01" y="269.57" width="81.53" height="0.72" transform="translate(-124.3 263.31) rotate(-48.4)"/><rect class="cls-15" x="188.37" y="267.93" width="81.53" height="0.72" transform="translate(-123.62 261.54) rotate(-48.4)"/><rect class="cls-15" x="199.83" y="279.39" width="81.53" height="0.72" transform="translate(-128.34 273.96) rotate(-48.4)"/><rect class="cls-15" x="198.19" y="277.75" width="81.53" height="0.72" transform="translate(-127.67 272.19) rotate(-48.4)"/><rect class="cls-15" x="196.56" y="276.12" width="81.53" height="0.72" transform="translate(-126.99 270.41) rotate(-48.4)"/><rect class="cls-15" x="198.91" y="318" width="81.53" height="3.62" transform="translate(-158.58 286.41) rotate(-48.36)"/><rect class="cls-15" x="196.47" y="317" width="81.53" height="0.72" transform="translate(-157.6 284.08) rotate(-48.4)"/><rect class="cls-15" x="194.83" y="315.36" width="81.53" height="0.72" transform="translate(-156.92 282.31) rotate(-48.4)"/><rect class="cls-15" x="193.19" y="313.72" width="81.53" height="0.72" transform="translate(-156.25 280.53) rotate(-48.4)"/><rect class="cls-15" x="204.65" y="325.18" width="81.53" height="0.72" transform="translate(-160.97 292.96) rotate(-48.4)"/><rect class="cls-15" x="203.01" y="323.55" width="81.53" height="0.72" transform="translate(-160.29 291.18) rotate(-48.4)"/><rect class="cls-15" x="201.38" y="321.91" width="81.53" height="0.72" transform="translate(-159.62 289.41) rotate(-48.4)"/><rect class="cls-15" x="195.9" y="224" width="81.53" height="3.62" transform="translate(-89.34 252.63) rotate(-48.36)"/><rect class="cls-15" x="193.45" y="223" width="81.53" height="0.72" transform="translate(-88.31 250.24) rotate(-48.4)"/><rect class="cls-15" x="191.82" y="221.36" width="81.53" height="0.72" transform="translate(-87.64 248.46) rotate(-48.4)"/><rect class="cls-15" x="190.18" y="219.73" width="81.53" height="0.72" transform="matrix(0.66, -0.75, 0.75, 0.66, -86.97, 246.69)"/><rect class="cls-15" x="201.64" y="231.19" width="81.53" height="0.72" transform="translate(-91.68 259.11) rotate(-48.4)"/><rect class="cls-15" x="200" y="229.55" width="81.53" height="0.72" transform="translate(-91.01 257.33) rotate(-48.4)"/><rect class="cls-15" x="198.36" y="227.91" width="81.53" height="0.72" transform="translate(-90.34 255.56) rotate(-48.4)"/></g><path class="cls-16" d="M239.19,217.55s9.16,10.58,12.43,14.92c2.12,2.81,16.79,29.84,16.79,29.84s15.54-45.39,16.79-51-3.11-22.38-3.11-22.38-15.54,15.54-19.27,17.41S239.19,217.55,239.19,217.55Z"/><path class="cls-16" d="M239.07,217.55s-9.16,10.58-12.43,14.92c-2.12,2.81-16.79,29.84-16.79,29.84s-15.54-45.39-16.79-51,3.11-22.38,3.11-22.38,15.54,15.54,19.27,17.41S239.07,217.55,239.07,217.55Z"/><path class="cls-7" d="M283.8,197.26s16.69,12.93,25.45,20,34.62,48,34.62,48l-24.19,6.67,20.86,20.44L292.14,396.24H247.93S281.3,244,283.38,233.55,286.72,206.85,283.8,197.26Z"/><path class="cls-7" d="M194.45,197.26s-16.69,12.93-25.45,20-34.62,48-34.62,48l24.19,6.67-20.86,20.44,48.39,103.87h44.22S197,244,194.87,233.55,191.53,206.85,194.45,197.26Z"/><path class="cls-17" d="M433.3,350.88c-4.13-18.5-12.4-50.21-13.09-53.52s2.07-17.18,1.38-27.75a17.28,17.28,0,0,0-7-12.91l.13-.31-2.32-1.11-.43-.22h0c-7.57-3.58-28.88-13.55-40.63-17.85-12.32-4.5-51.09-16.66-62.34-20.18-8.29-6.7-23.19-18.27-25-19.66-.9-4.61-1.9-8.45-1.9-8.45l-1.19,1.19v-8c2.76-2.54,6-9.35,7.65-16.72.73-3.33,1.51-9.67,2.28-17.16a17.15,17.15,0,0,0,8.31-6.57c3.65-5.84,5.84-17.53,4.75-23s-1.46-15-.73-17.89a3.55,3.55,0,0,0-.53-2.66c.74-4.23,1.62-12.8,1.62-14.5,0-2.19,1.83-5.48,1.83-5.48l-.73-6.21s0-18.26-.37-21.54-2.56-8-2.92-9.49-8-12.42-8-12.42a20.94,20.94,0,0,0-9.57-6.84,7.15,7.15,0,0,1,1.62-3.5c-1.48-1.48-8.89,0-8.89,0v-3.7a10.55,10.55,0,0,0-4.31,3.19,10.82,10.82,0,0,0-.88-2.82c-1.48-2.59-4.82-9.63-6.3-10.37s.37,2.59.37,2.59-13.34-5.93-23.71-7l2.22,2.22s-21.11,2.59-29.26,5.56-31.86,20.37-33,23l.37,3.7s-5.19,4.44-6.67,5.56a1.8,1.8,0,0,0-.4.48c-1.45,2.34-3.31,11-3.31,11s-2.59,1.11-3.33,2.59-1.85,11.85-1.85,14.08c0,0-2.22,5.19-2.22,7.78s1.11,10.74,1.11,10.74l4.44,5.19a63.65,63.65,0,0,1,5.36,7.79,2.93,2.93,0,0,0,0,1.14c.73,2.92.37,12.42-.73,17.89s1.1,17.16,4.75,23a17.15,17.15,0,0,0,8.31,6.57c.77,7.49,1.55,13.83,2.28,17.16,1.6,7.37,4.89,14.18,7.65,16.72v8.78l-2-2s-1,3.84-1.9,8.45c-1.8,1.39-16.7,13-25,19.66-11.25,3.51-50,15.68-62.34,20.18-11.75,4.3-33.06,14.26-40.63,17.85h0l-.43.22-2.32,1.11.13.31a17.28,17.28,0,0,0-7,12.91C56,280.18,58.73,294.06,58,297.36s-9,35-13.09,53.52-5.51,27.75-5.51,27.75h60.2c.26,1.69.41,2.64.41,2.64h74.56l-.05.88h5l6.56,14.08h44.22l-3.08-14.08H251l-3.08,14.08h44.22l6.56-14.08h5l-.06-.88H378.2s.15-1,.41-2.64h60.2S437.43,369.38,433.3,350.88Z"/><rect class="cls-18" x="72.04" y="446.96" width="331.64" height="28.05"/><rect class="cls-19" x="109.17" y="449.79" width="25.32" height="25.08"/><rect class="cls-17" x="72.04" y="446.96" width="331.64" height="12.67"/><rect class="cls-19" x="336.29" y="449.79" width="25.32" height="25.08"/><path class="cls-20" d="M0,346,25,449.72H454.71L478.25,346S2.27,348.42,0,346Z"/><path class="cls-17" d="M47.53,449.72,150.15,347.09c-83,.06-149.31-.16-150.15-1L25,449.72Z"/><path class="cls-17" d="M418.94,346.32l-27.85,27.84Q353.26,412,315.37,449.72H454.71L478.25,346S455.08,346.16,418.94,346.32Z"/></g></g></g></svg>