<svg xmlns="http://www.w3.org/2000/svg" viewBox="0 0 478.25 460.76"><defs><style>.cls-1{isolation:isolate;}.cls-2{fill:#b0b0b0;}.cls-3{fill:#4a4a4a;}.cls-4{fill:#d2d2d2;}.cls-5{fill:#545454;}.cls-6{fill:#4c4c4c;}.cls-7{fill:#464646;}.cls-8{fill:#e2e2e2;}.cls-9{fill:#5a5a5a;}.cls-10{fill:#f6f6f6;}.cls-11{fill:#343434;}.cls-12{fill:#a5a5a5;}.cls-13{fill:#c5c5c5;}.cls-14{fill:#777;}.cls-15{fill:#929292;}.cls-16,.cls-17{fill:#054366;}.cls-16{opacity:0.5;mix-blend-mode:soft-light;}.cls-18{fill:#f2f2f2;}.cls-19{fill:#c0242d;}</style></defs><title>eckhart</title><g class="cls-1"><g id="Layer_2" data-name="Layer 2"><g id="Layer_1-2" data-name="Layer 1"><path class="cls-2" d="M238.37,158.33l-44.19-1.06.54,34.38s11.63,39.61,43.25,40.27v0h.8c33.14-.63,44.78-40.27,44.78-40.27l.54-34.38Z"/><path class="cls-3" d="M169.29,196.6s-42,15.9-54.28,19.25-43.3,9.86-43.3,9.86S86.35,306.29,87,311.18s1.79,34.11,1.79,34.11H172Z"/><path class="cls-4" d="M239,231.42c-6.85-.71-62-.21-62-.21l1,105.87H300l1-105.87S245.87,230.71,239,231.42Z"/><path class="cls-5" d="M248.77,233.15c-1.94-.93-7.21-1.12-9.74-1.12s-7.8.19-9.74,1.12c-2.39,1.15-7.12,11.46-7.12,11.46l8.17,16h17.38l8.17-16S251.15,234.3,248.77,233.15Z"/><polygon class="cls-6" points="247.72 260.61 240.03 260.61 239.61 260.61 230.34 260.61 216.85 333.82 239.45 333.82 240.2 333.82 261.2 333.82 247.72 260.61"/><path class="cls-7" d="M75.56,225.71s-6.76-.81-9.51,1.54-18.66,37.5-18.66,37.5-4.91,4.64-6,6.9-.89,8.31-.89,8.31L29.29,296.42,25.9,314.1,20,348.58H92.64l-1.78-37.39Z"/><path class="cls-8" d="M236.92,231.21s-16.09,18.86-19.06,22.18-16,21-16,21-11.52-21-15.23-34.26-4.7-51.92-4.7-51.92l12.46-16.7s-.25,19.12,4.36,27C206.35,211.49,232.11,227.87,236.92,231.21Z"/><path class="cls-9" d="M194.35,171.47c-.57,1.59-11.32,12.52-12,20.26-.88,9.67,14,149.28,14,149.28H153.12s-25.78-93.4-27.08-99.32l26.19-17.06-10.29-4.69s18.7-21.83,26.15-28.34C178.86,182.21,191.87,172.36,194.35,171.47Z"/><path class="cls-3" d="M309,196.6s42,15.9,54.28,19.25,43.3,9.86,43.3,9.86-14.64,80.58-15.3,85.48-1.79,34.11-1.79,34.11H306.28Z"/><path class="cls-7" d="M402.69,225.71s6.76-.81,9.51,1.54,18.66,37.5,18.66,37.5,4.91,4.64,6,6.9.89,8.31.89,8.31L449,296.42l3.38,17.68,4.89,34.47H385.61l1.78-37.39Z"/><path class="cls-8" d="M241.33,231.21s16.09,18.86,19.06,22.18,16,21,16,21,11.52-21,15.23-34.26,4.7-51.92,4.7-51.92l-12.46-16.7s.25,19.12-4.36,27C271.9,211.49,246.14,227.87,241.33,231.21Z"/><path class="cls-9" d="M283.9,171.47c.57,1.59,11.32,12.52,12,20.26.88,9.67-14,149.28-14,149.28h43.25s25.78-93.4,27.08-99.32L326,224.63l10.29-4.69s-18.7-21.83-26.15-28.34C299.4,182.21,286.38,172.36,283.9,171.47Z"/><path class="cls-10" d="M312.64,248s4.56.11,6.63,2.29,3.61,4.19,8.24,4l1.42-7.33s-3.71-1.56-5.1-3.52c-1.79-2.55-6.06-3.53-10.27-3.31Z"/><path class="cls-5" d="M328.81,247.21c-.16-.07-3.82-1.61-5.23-3.63-1.55-2.21-5.39-3.41-10-3.17l0-.64c3.78-.2,8.54.59,10.55,3.44,1.31,1.87,4.92,3.39,5,3.41Z"/><path class="cls-5" d="M328.68,248.46c-1,0-4.39-1.76-5.86-3.73-1.86-2.49-6.21-3.18-9.39-3l0-.64c3.33-.18,7.93.57,9.94,3.26a11.06,11.06,0,0,0,5.33,3.47h0l0,.64Z"/><path class="cls-5" d="M328.37,249.68c-1.72,0-4.74-1.81-6.31-3.8-1.72-2.19-5.76-3-8.79-2.84l0-.64c3.2-.18,7.47.72,9.33,3.09,1.57,2,4.42,3.55,5.8,3.55h.08l0,.64Z"/><path class="cls-5" d="M328,250.91c-2.59,0-5.22-2.06-6.71-3.87-1.8-2.18-6-2.8-8.19-2.68l0-.64c1.68-.1,6.52.25,8.72,2.91,1.56,1.88,4.11,3.76,6.4,3.64l0,.64Z"/><path class="cls-5" d="M327.67,252.13c-3.3,0-5.63-2.24-7.12-3.95-1.82-2.09-6-2.61-7.59-2.52l0-.64c1.16-.06,5.92.22,8.11,2.74,2.33,2.68,4.47,3.83,6.93,3.72l0,.64Z"/><path class="cls-5" d="M327.29,253.36c-3.82,0-5.76-2.13-7.49-4-1.93-2.12-6.26-2.38-7-2.36l0-.64c.83,0,5.37.23,7.49,2.56s3.89,4,7.46,3.8l0,.64Z"/><path class="cls-5" d="M326.89,254.58c-4,0-5.65-1.78-7.42-3.65l-.42-.45c-2-2.05-6.37-2.19-6.41-2.19l0-.64c.19,0,4.72.14,6.86,2.39l.42.45c1.83,1.94,3.41,3.63,7.56,3.44l0,.64Z"/><line class="cls-10" x1="313.58" y1="240.09" x2="312.64" y2="247.97"/><path class="cls-11" d="M320.76,246.31l.92-5.13a14.83,14.83,0,0,0-7.82-1.43l-.67,4.54A19.61,19.61,0,0,1,320.76,246.31Z"/><polygon class="cls-12" points="313.78 238 315.11 238.23 313.64 250.83 312.15 250.27 313.78 238"/><path class="cls-2" d="M189.93,134s-3,3.42-5.13,3-9.84-14.12-10.27-18.82-1.28-12.83-2.57-17.54-5.56-13.26-.86-16.26,15,19.25,15,19.25Z"/><path class="cls-2" d="M288.32,134s3,3.42,5.13,3,9.84-14.12,10.27-18.82,1.28-12.83,2.57-17.54,5.56-13.26.86-16.26-15,19.25-15,19.25Z"/><path class="cls-13" d="M241.27,19V18.9H237V19c-46.28,1.13-54.75,20.48-54.75,20.48l2.57,74s5.13,34.23,7.27,41.07,25.54,40.33,31.66,43.21c4.78,2.25,11.41,2.1,15.39,1.73,4,.37,10.61.52,15.39-1.73,6.12-2.88,29.52-36.37,31.66-43.21s7.27-41.07,7.27-41.07l2.57-74S287.55,20.09,241.27,19Z"/><path class="cls-14" d="M200.05,103.4s3.68-2.34,5.35-3.34,12.71-2.34,14.38-2.68,10.7,2.34,10.7,2.34l-.33-4.35s-7.36-2.68-9.7-2.68S202.39,96,202.39,96l-6.69,5.35Z"/><path class="cls-14" d="M278.2,103.4s-3.68-2.34-5.35-3.34-12.71-2.34-14.38-2.68-10.7,2.34-10.7,2.34l.33-4.35s7.36-2.68,9.7-2.68S275.86,96,275.86,96l6.69,5.35Z"/><path class="cls-14" d="M271,30.49s-7,.54-9.13,1.07l.54,4.3-3.22-1.61L260.24,38l-4.3-1.61L257,40.16l-5.37-3.22.54,3.76s-7.52-3.22-11.82-3.22-17.73,3.76-22,6.45l5.37-5.37s-16.11,5.37-18.8,8.06L213,38.55l-15,7s4.3-8.06,7-8.06c0,0-10.74,3.76-11.82,5.91s-4.3,12.35-4.83,14a47.89,47.89,0,0,1-2.69,5.37l3.76-1.07-4.66,44-5.22-13.42-5.9-7.7s-.34-11.61.74-14.3l-3.76,2.15s1.61-14,4.3-18.26l-4.3-2.69S177,34.25,181.27,30.49l-8.06,5.37s13.43-20.95,27.93-27.4S237.67-1.2,246.27.41s26.86,9.13,30.08,12.35l-1.61-5.37s6.45,6.45,7.52,9.13Z"/><path class="cls-15" d="M271,30.49S279,40.7,279.57,45l1.61-2.15s3,13.53,3,17.83L286.88,58l2.47,27.3,4.22,23.84,2.2-12.47L304,84.77s-2.92-33.87-8.83-45.15l3.76,2.15s-5.37-16.11-10.74-19.34l3.76-1.07S286,16,279.57,17.6Z"/><path class="cls-16" d="M457.24,348.58l-4.89-34.47L449,296.42,437.72,280s.17-6.06-.89-8.31-6-6.9-6-6.9S415,229.6,412.2,227.25c-1.49-1.28-4.16-1.62-6.3-1.67-4.58-.91-31.36-6.65-42.66-9.73-8.52-2.32-31.24-10.64-44.42-15.55-3.35-3.59-6.48-6.79-8.66-8.69-10.77-9.39-23.78-19.24-26.26-20.13a1.79,1.79,0,0,0,.15.29l-.2-.26L284,159a27.5,27.5,0,0,0,2.13-4.43c.92-2.93,2.38-10.87,3.75-19,1,.85,2.39,1.68,3.52,1.46,2.14-.43,9.84-14.12,10.27-18.82s1.28-12.83,2.57-17.54,5.56-13.26.86-16.26c-1-.64-2.27-.12-3.63,1.08l.46-.67S301.32,54,296,41.33l0-1.22,2.92,1.67s-5.37-16.11-10.74-19.34l3.76-1.07s-4.71-4.27-10.31-4l.64-.8c-1.07-2.69-7.52-9.13-7.52-9.13l1.61,5.37C273.13,9.54,254.86,2,246.27.41S215.65,2,201.15,8.47s-27.93,27.4-27.93,27.4l8.06-5.37c-4.3,3.76-10.74,20.95-10.74,20.95l4.3,2.69c-2.69,4.3-4.3,18.26-4.3,18.26l3.76-2.15c-1.07,2.69-.74,14.3-.74,14.3l0,0a2.28,2.28,0,0,0-2.48-.23c-4.71,3-.43,11.55.86,16.26s2.14,12.83,2.57,17.54,8.13,18.4,10.27,18.82c1.12.22,2.48-.61,3.52-1.46,1.38,8.13,2.84,16.07,3.75,19A27.5,27.5,0,0,0,194.2,159l.2,12.54-.19.26a1.81,1.81,0,0,0,.15-.29c-2.48.89-15.5,10.74-26.26,20.13-2.18,1.9-5.31,5.1-8.66,8.69-13.19,4.91-35.91,13.24-44.42,15.55-11.31,3.08-38.08,8.82-42.66,9.73-2.13,0-4.8.39-6.3,1.67-2.75,2.35-18.66,37.5-18.66,37.5s-4.91,4.64-6,6.9-.89,8.31-.89,8.31L29.29,296.42,25.9,314.1,20,348.58H92.64l-.19-3.29H172l-.08-4.28h24.47l-.44-3.93h86.4l-.44,3.93h24.47l-.08,4.28H385.8l-.19,3.29Z"/><rect class="cls-17" x="72.04" y="432.71" width="331.64" height="28.05"/><rect class="cls-18" x="109.17" y="435.54" width="25.32" height="25.08"/><rect class="cls-16" x="72.04" y="432.71" width="331.64" height="12.67"/><rect class="cls-18" x="336.29" y="435.54" width="25.32" height="25.08"/><path class="cls-19" d="M0,331.79,25,435.46H454.71l23.55-103.67S2.27,334.16,0,331.79Z"/><path class="cls-16" d="M47.53,435.46,150.15,332.83c-83,.06-149.31-.16-150.15-1L25,435.46Z"/><path class="cls-16" d="M418.94,332.06,391.09,359.9q-37.84,37.81-75.73,75.56H454.71l23.55-103.67S455.08,331.9,418.94,332.06Z"/></g></g></g></svg>