<svg xmlns="http://www.w3.org/2000/svg" viewBox="0 0 478.25 462.69"><defs><style>.cls-1{isolation:isolate;}.cls-2{fill:#b4b4b4;}.cls-3{fill:#383838;}.cls-4{fill:#343434;}.cls-5{fill:#9d9d9d;}.cls-6{fill:#b1b1b1;}.cls-7{fill:#484848;}.cls-8{fill:#3c3c3c;}.cls-9{fill:#434343;}.cls-10{fill:#4d4d4d;}.cls-11{fill:#dfdfdf;}.cls-12{fill:#303030;}.cls-13,.cls-14{fill:#054366;}.cls-13{opacity:0.5;mix-blend-mode:soft-light;}.cls-15{fill:#f2f2f2;}.cls-16{fill:#c0242d;}</style></defs><title>ford</title><g class="cls-1"><g id="Layer_2" data-name="Layer 2"><g id="Layer_1-2" data-name="Layer 1"><rect class="cls-2" x="180.61" y="210.67" width="117.85" height="171.72"/><path class="cls-3" d="M78.34,222.1S68,223.58,66.53,236.86s-22.13,76.71-23.6,85.56a33.34,33.34,0,0,0,1.48,16.23l-11.8,42.78H144.72S76.86,222.1,78.34,222.1Z"/><path class="cls-3" d="M399.92,222.1s10.33,1.48,11.8,14.75,22.13,76.71,23.6,85.56a33.34,33.34,0,0,1-1.48,16.23l11.8,42.78H333.54S401.39,222.1,399.92,222.1Z"/><path class="cls-4" d="M260.45,344s-.44-60.48-2.21-73.76-8.39-24.34-9.27-26.55S246.76,229,246.76,229l-7.69-.49v-.25l-1.4.16-2.5-.16v.44l-2.67.3s-1.79,12.54-3,14.75S219.35,257,217,270.27,214,344,214,344v36.14h46.48Z"/><path class="cls-5" d="M239.54,148l-44.85-15.14,3,55.86s20.52,16,38.2,26.48v3.25a23.76,23.76,0,0,0,3.67-1.33,23.81,23.81,0,0,0,3.67,1.33v-3.25c17.68-10.51,38.2-26.48,38.2-26.48l3-55.86Z"/><path class="cls-5" d="M187.46,105.45s-7-15.15-10.7-15.15-7,1.64-6.18,4.1,4.53,9.83,3.29,15.15,2.47,18.43,4.53,21.29,5.76,6.55,8.23,5.32,7.41-9,7.41-9Z"/><path class="cls-5" d="M291.61,105.45s7-15.15,10.7-15.15,7,1.64,6.18,4.1-4.53,9.83-3.29,15.15-2.47,18.43-4.53,21.29-5.76,6.55-8.23,5.32-7.41-9-7.41-9Z"/><path class="cls-6" d="M264.44,33.79l-3-.35.1-.88s-6.5-1.41-22-.84c-15.53-.57-22,.84-22,.84l.1.88-3,.35c-33.76,4.09-31.29,52-31.29,52s4.12,39.31,6.18,47.09,11.12,32.76,14.82,37.26,20.17,17.2,23.05,19.25c1.86,1.32,8,1.45,12.14,1.37,4.13.08,10.28,0,12.14-1.37,2.88-2,19.35-14.74,23.05-19.25s12.76-29.48,14.82-37.26,6.18-47.09,6.18-47.09S298.2,37.88,264.44,33.79Z"/><path class="cls-7" d="M266.23,44.89S280,53,283.25,59.18s6.18,19.66,6.18,25a53,53,0,0,1-.82,9.42l4.53,18.84s2.06-10.24,3.29-14.33,7.83-7.31,7.83-7.31,2-24.23,1.63-28.73l4,2.87s-3.29-19.25-5.35-25S290.24,19,287.36,15.77L291.07,17s-2.53-4-13.41-7.87c-12.72-4.47-20.77-.65-20.77-.65l3.71-3.28s-7.41,0-9.06,5.32Z"/><path class="cls-8" d="M194.13,184s-15.49,12.54-17.7,13.28-66.38,19.91-72.28,19.91-28.77,5.16-28.77,5.16,22.86,104,27.29,113.59,7.38,64.17,7.38,64.17H216.26S193.4,298.29,193.4,280.59,194.13,184,194.13,184Z"/><path class="cls-8" d="M284.12,184s15.49,12.54,17.7,13.28,66.38,19.91,72.28,19.91,28.77,5.16,28.77,5.16-22.86,104-27.29,113.59-7.38,64.17-7.38,64.17H262s22.86-101.79,22.86-119.49S284.12,184,284.12,184Z"/><polygon class="cls-9" points="250.82 208.31 240.19 208.31 240.19 208.31 228.26 208.31 230.89 233.39 240.19 234.07 240.19 234.12 240.54 234.09 240.97 234.12 240.97 234.06 248.87 233.38 250.82 208.31"/><path class="cls-10" d="M255.8,50.58s-18.11-4.1-24.29-3.69L235.22,44s-8.89-1.45-22.23,6.14c-8.24,4.69-13.56,15.52-16.5,21.83,0,0,2.5-17.73,5-19,0,0-11.12,8.6-11.53,11.88s.41,26.62.82,29.89-4.94,17.61-4.94,17.61L183.35,98.9l-6.59-8.6-3.29.41s-5.35-28.26-4.53-34.81l6.59-11.06-5.35,2.87s15.64-23.34,20.58-27.44S203.93,6.76,208.87,5.12,233.57-1,238.1.21a21.49,21.49,0,0,1,8.23,4.91L245.1.62s4.12,2.46,4.94,4.91a45.71,45.71,0,0,0,3.71,7s9.06,16,11.53,20.07,1.24,14.74-.82,16S260.74,51.4,255.8,50.58Z"/><path class="cls-11" d="M198.56,241.5s16.23-14,19.91-17,18.44-16.23,18.44-16.23-28-19.18-32.45-22.13-6.8-10.3-6.8-10.3L196.35,167s-5.16,14-5.16,19.91S198.56,241.5,198.56,241.5Z"/><path class="cls-12" d="M196.61,167s-30.26,27.29-38.51,42-10.68,23.6-10.68,23.6l20.51,8.11L136,249.61s52.56,86.3,54.29,90.72,21.56,39.09,21.56,39.09-18.5-175.54-19.17-182.92S196.61,167,196.61,167Z"/><path class="cls-11" d="M279.69,241.5s-16.23-14-19.91-17-18.44-16.23-18.44-16.23,28-19.18,32.45-22.13,6.8-10.3,6.8-10.3l1.32-8.88s5.16,14,5.16,19.91S279.69,241.5,279.69,241.5Z"/><path class="cls-12" d="M282,167.37s30.26,27.29,38.51,42S331.2,233,331.2,233l-20.51,8.11L342.63,250s-52.56,86.3-54.29,90.72-21.56,39.09-21.56,39.09S285.29,204.25,286,196.88,282,167.37,282,167.37Z"/><path class="cls-7" d="M202.12,102.23s-.53-5.32-.79-6.33,8.41-4.81,11-4.81,10.77,1.77,12.08,2.28,6,4.3,6,4.3l-1.31,1.77s-5.52-3.54-6.83-3.54-10.51.25-13.66,1.27C207.44,97.56,202.12,102.23,202.12,102.23Z"/><path class="cls-7" d="M277,102.23s.53-5.32.79-6.33-8.41-4.81-11-4.81-10.77,1.77-12.08,2.28-6,4.3-6,4.3l1.31,1.77s5.52-3.54,6.83-3.54,10.51.25,13.66,1.27C271.63,97.56,277,102.23,277,102.23Z"/><path class="cls-13" d="M433.85,338.64a33.34,33.34,0,0,0,1.48-16.23c-1.48-8.85-22.13-72.28-23.6-85.56-1-8.79-5.83-12.4-9-13.85l.15-.69s-22.87-5.16-28.77-5.16c-4.31,0-39.73-10.24-59.36-16-10.71-13.5-29-30.32-32.22-33.28l.9-16.84c2.63-7,5-14,6-17.69a11.84,11.84,0,0,0,3,2.86c2.47,1.23,6.17-2.46,8.23-5.32s5.76-16,4.53-21.29,2.47-12.69,3.29-15.15c.67-2-1.41-3.47-4.21-3.93.24-2.82,2-24.21,1.61-28.42l4,2.87s-3.29-19.25-5.35-25S290.24,19,287.36,15.77L291.07,17s-2.53-4-13.41-7.87c-12.72-4.47-20.77-.65-20.77-.65l3.7-3.28s-6.42,0-8.63,4.3a26.45,26.45,0,0,1-1.92-4C249.21,3.08,245.1.62,245.1.62l1.23,4.5A21.49,21.49,0,0,0,238.1.21C233.57-1,213.81,3.49,208.87,5.12S195.7,16.18,190.76,20.28s-20.58,27.44-20.58,27.44l5.35-2.87L168.94,55.9c-.82,6.55,4.53,34.81,4.53,34.81l.41-.05c-2.32.61-3.89,2-3.29,3.74.82,2.46,4.53,9.83,3.29,15.15s2.47,18.43,4.53,21.29,5.76,6.55,8.23,5.32a11.84,11.84,0,0,0,3-2.86c1,3.72,3.39,10.73,6,17.69l.86,16.1-.13.12,0-.21-.13.36c-2.94,2.67-21.81,20-32.61,33.72-19.61,5.8-55.14,16.07-59.45,16.07-5.9,0-28.77,5.16-28.77,5.16l.15.69c-3.17,1.44-8,5.06-9,13.85-1.48,13.28-22.13,76.71-23.6,85.56a33.34,33.34,0,0,0,1.48,16.23l-11.8,42.78h76.21c.79,10.53,1.23,18.66,1.23,18.66H216.26s-1.58-7-3.9-17.69h53.53c-2.32,10.67-3.9,17.69-3.9,17.69H368.2s.44-8.13,1.23-18.66h76.21Z"/><rect class="cls-14" x="72.04" y="434.64" width="331.64" height="28.05"/><rect class="cls-15" x="109.17" y="437.47" width="25.32" height="25.08"/><rect class="cls-13" x="72.04" y="434.64" width="331.64" height="12.67"/><rect class="cls-15" x="336.29" y="437.47" width="25.32" height="25.08"/><path class="cls-16" d="M0,333.72,25,437.39H454.71l23.55-103.67S2.27,336.1,0,333.72Z"/><path class="cls-13" d="M47.53,437.39,150.15,334.77c-83,.06-149.31-.16-150.15-1L25,437.39Z"/><path class="cls-13" d="M418.94,334l-27.85,27.84q-37.84,37.81-75.73,75.56H454.71l23.55-103.67S455.08,333.84,418.94,334Z"/></g></g></g></svg>