<svg xmlns="http://www.w3.org/2000/svg" xmlns:xlink="http://www.w3.org/1999/xlink" viewBox="0 0 478.25 463.38"><defs><style>.cls-1{fill:none;}.cls-2{isolation:isolate;}.cls-3{fill:#5c5c5c;}.cls-4{fill:#656565;}.cls-5{fill:#898989;}.cls-6{fill:#cacaca;}.cls-7{fill:#b7b7b7;}.cls-8{fill:#bbb;}.cls-9{fill:#676767;}.cls-10{fill:#5d5d5d;}.cls-11{fill:#aeaeae;}.cls-12{clip-path:url(#clip-path);}.cls-13{fill:#747474;}.cls-14{fill:#4b4b4b;}.cls-15{fill:#d6d6d6;}.cls-16,.cls-17{fill:#054366;}.cls-16{opacity:0.5;mix-blend-mode:soft-light;}.cls-18{fill:#f2f2f2;}.cls-19{fill:#c0242d;}</style><clipPath id="clip-path"><path class="cls-1" d="M254.2,262.21c-.68-2.81-7.1-14.52-8-16.13l11.66-13.14-9.55-9.64H229.93l-9.55,9.64L232,246.08c-.88,1.6-7.3,13.31-8,16.13-.73,3-10.29,93.66-10.29,93.66h50.72S254.93,265.23,254.2,262.21Z"/></clipPath></defs><title>freeman</title><g class="cls-2"><g id="Layer_2" data-name="Layer 2"><g id="Layer_1-2" data-name="Layer 1"><path class="cls-3" d="M277.95,152.52H200.31V196.2s22.13,22,36.32,27v1a12.16,12.16,0,0,0,2.5-.29,12.16,12.16,0,0,0,2.5.29v-1c14.19-5,36.32-27,36.32-27Z"/><path class="cls-3" d="M296.37,91.88S300.79,88.41,303,90s4.7,5.6,3,11.73-4.42,14.13-5.25,18.4-2.49,14.4-5.53,14.67-6.08-1.07-6.91-6.93l2.21-30.67Z"/><path class="cls-3" d="M181.92,91.88s-4.44-3.47-6.66-1.87-4.71,5.6-3.05,11.73,4.44,14.13,5.27,18.4,2.5,14.4,5.55,14.67,6.1-1.07,6.93-6.93l-2.22-30.67Z"/><path class="cls-4" d="M281.38,32.74c-11.76-9.29-38.54-9.08-42.25-9-3.71-.08-30.49-.29-42.25,9-12.65,10-10,72.45-10,72.45s2.63,37,3.69,42.47,16.86,27.53,22.13,32c3.79,3.23,20.27,10.63,26.44,9.58,6.17,1,22.66-6.35,26.44-9.58,5.27-4.5,21.08-26.53,22.13-32s3.69-42.47,3.69-42.47S294,42.73,281.38,32.74Z"/><path class="cls-5" d="M306.4,68.09a10.06,10.06,0,0,0-1.33-2.62s2.12-3.4.8-5.5a21.05,21.05,0,0,0-2.66-3.4s0-5.24-1.59-5.76a12.51,12.51,0,0,0,.8-4.45,7.49,7.49,0,0,0-1.62-3.47,8.44,8.44,0,0,0,.56-3.59c-.3-1.29-1.86-2.09-3.72-2.62-1.63-.46-1.33-1-1.33-1s0-2.88-1.59-3.67c0,0,0-3.4-1.33-3.93A3.14,3.14,0,0,0,291,28s-.8-3.14-2.12-3.67a2.61,2.61,0,0,0-2.39.26s.27-3.4-1.86-3.93a7.39,7.39,0,0,0-3.19-.26s.27-2.88-.8-3.67a3.32,3.32,0,0,0-2.39-.52s.27-3.67-1.86-4.19l-2.12-.52s-2.12-2.36-3.45-2.36c0,0-2.12-3.14-4-3.4L265,5.52a6.29,6.29,0,0,0-2.92-1.57,9.35,9.35,0,0,0-3.45.26s-1.86-3.14-3.72-3.14a3.87,3.87,0,0,0-2.66.79A6,6,0,0,0,249.05.54a1.9,1.9,0,0,0-1.86,1.57S243.48-.24,242.41,0a3.94,3.94,0,0,0-1.86,1.31,2.94,2.94,0,0,0-.22-.31l0-.74a5.83,5.83,0,0,0-2.45,0l0,.74a3,3,0,0,0-.22.31A3.94,3.94,0,0,0,235.84,0c-1.06-.26-4.78,2.09-4.78,2.09A1.9,1.9,0,0,0,229.2.54,6,6,0,0,0,226,1.85a3.87,3.87,0,0,0-2.66-.79c-1.86,0-3.72,3.14-3.72,3.14a9.35,9.35,0,0,0-3.45-.26,6.29,6.29,0,0,0-2.92,1.57l-1.86.26c-1.86.26-4,3.4-4,3.4-1.33,0-3.45,2.36-3.45,2.36l-2.12.52c-2.12.52-1.86,4.19-1.86,4.19a3.32,3.32,0,0,0-2.39.52c-1.06.79-.8,3.67-.8,3.67a7.39,7.39,0,0,0-3.19.26c-2.12.52-1.86,3.93-1.86,3.93a2.61,2.61,0,0,0-2.39-.26c-1.33.52-2.12,3.67-2.12,3.67a3.14,3.14,0,0,0-2.39,0c-1.33.52-1.33,3.93-1.33,3.93-1.59.79-1.59,3.67-1.59,3.67s.31.59-1.33,1c-1.86.52-3.42,1.33-3.72,2.62a8.44,8.44,0,0,0,.56,3.59,7.49,7.49,0,0,0-1.62,3.47,12.51,12.51,0,0,0,.8,4.45c-1.59.52-1.59,5.76-1.59,5.76a21.05,21.05,0,0,0-2.66,3.4c-1.33,2.09.8,5.5.8,5.5a10.06,10.06,0,0,0-1.33,2.62c-.53,1.57,1.33,2.62,1.33,2.62-1.59,1.83-.27,6.81-.27,6.81,0,2.09,3.72,3.93,3.72,3.93-.53,1.83.8,5.5.8,5.5.27,1.57,2.39,2.36,2.39,2.36a5.65,5.65,0,0,0,2.39,1.83s.27,2.62,1.06,3.4a15.5,15.5,0,0,0,2.92,1.83l2.39,1.57s.8-5.76,1.59-7.07.8-6.28.8-6.28c1.06-1.31.53-5.24.53-5.24,1.86-1,1.06-5,1.06-5a7.2,7.2,0,0,0,2.39-.52c1.33-.52,0-2.62,0-2.62s1.59.79,2.39-.52.27-3.67.27-3.67c1.33-1,.53-3.14.53-3.14,1.06-1.31-.27-5.24-.27-5.24l.27-2.09c.27-2.09-1.33-6.28-1.33-6.28s.8.52,2.12-.79.53-6.28.53-6.28a14.6,14.6,0,0,0,2.66-1c1.59-.79,1.06-2.88,1.06-2.88h3.45c2.12,0,2.12-2.62,2.12-2.62a5.81,5.81,0,0,0,5.31.26A9.49,9.49,0,0,0,218.32,33a4.21,4.21,0,0,0,2.39-.26,6,6,0,0,0,2.66-2.09A7.39,7.39,0,0,0,226.55,32c1.33,0,2.12-1.57,2.12-1.57s3.19,3.14,6.11,3.4a5.33,5.33,0,0,0,4.35-2.06,5.33,5.33,0,0,0,4.35,2.06c2.92-.26,6.11-3.4,6.11-3.4s.8,1.57,2.12,1.57a7.39,7.39,0,0,0,3.19-1.31,6,6,0,0,0,2.66,2.09,4.21,4.21,0,0,0,2.39.26,9.49,9.49,0,0,0,4.25,3.93,5.81,5.81,0,0,0,5.31-.26s0,2.62,2.12,2.62h3.45s-.53,2.09,1.06,2.88a14.6,14.6,0,0,0,2.66,1s-.8,5,.53,6.28,2.12.79,2.12.79-1.59,4.19-1.33,6.28l.27,2.09s-1.33,3.93-.27,5.24c0,0-.8,2.09.53,3.14,0,0-.53,2.36.27,3.67s2.39.52,2.39.52-1.33,2.09,0,2.62a7.2,7.2,0,0,0,2.39.52s-.8,3.93,1.06,5c0,0-.53,3.93.53,5.24,0,0,0,5,.8,6.28s1.59,7.07,1.59,7.07l2.39-1.57A15.51,15.51,0,0,0,295,94.54c.8-.79,1.06-3.4,1.06-3.4a5.65,5.65,0,0,0,2.39-1.83s2.12-.79,2.39-2.36c0,0,1.33-3.67.8-5.5,0,0,3.72-1.83,3.72-3.93,0,0,1.33-5-.27-6.81C305.08,70.71,306.93,69.66,306.4,68.09Z"/><path class="cls-5" d="M225.81,81.34s0-6.12-2.3-7.27-14.8-1.91-17.09-1.53-6.5,3.83-7.65,5.36-3.06,7.27-3.06,7.27l1.53,1.53s5.36-6.89,9.18-8C207.93,78.2,225.81,81.34,225.81,81.34Z"/><path class="cls-5" d="M252.45,81.34s0-6.12,2.3-7.27,14.8-1.91,17.09-1.53,6.5,3.83,7.65,5.36,3.06,7.27,3.06,7.27L281,86.69s-5.36-6.89-9.18-8C270.33,78.2,252.45,81.34,252.45,81.34Z"/><polygon class="cls-5" points="265.66 138.98 251.03 134.32 243.67 129.25 239.13 129.22 234.59 129.25 227.22 134.32 212.59 138.98 211.7 145.4 213.03 149.17 214.81 145.85 215.03 148.06 221.9 145.18 223.67 142.52 223.01 144.96 227 142.3 233.21 141.86 234.76 139.2 235.2 141.41 239.06 141.41 239.19 141.41 243.05 141.41 243.5 139.2 245.05 141.86 251.25 142.3 255.25 144.96 254.58 142.52 256.35 145.18 263.23 148.06 263.45 145.85 265.22 149.17 266.55 145.4 265.66 138.98"/><polygon class="cls-6" points="238.02 222.1 233.86 222.1 171.14 222.1 171.14 350.44 233.86 350.44 238.02 350.44 307.11 350.44 307.11 222.1 238.02 222.1"/><path class="cls-7" d="M402.5,245.72s6.28,3.47,9.07,9,2.79,16.65,2.79,16.65,2.79,22.2,4.19,26.37,9.77,16,9.77,16a37.33,37.33,0,0,1,6.28,4.86c2.79,2.78.7,8.33.7,8.33l25.82,40.94H373.19l.7-74.24Z"/><path class="cls-8" d="M312.47,202.91s54.44,28.24,61.42,32.41,28.62,10.41,28.62,10.41S383.66,286,380.87,296.37s-4.19,59.67-3.49,65.92.7,23.1.7,23.1H274.78Z"/><path class="cls-7" d="M75.75,245.72s-6.28,3.47-9.07,9-2.79,16.65-2.79,16.65-2.79,22.2-4.19,26.37-9.77,16-9.77,16a37.33,37.33,0,0,0-6.28,4.86c-2.79,2.78-.7,8.33-.7,8.33L17.12,367.84h87.94l-.7-74.24Z"/><path class="cls-8" d="M165.79,202.91s-54.44,28.24-61.42,32.41-28.62,10.41-28.62,10.41S94.6,286,97.39,296.37s4.19,59.67,3.49,65.92-.7,23.1-.7,23.1h103.3Z"/><polygon class="cls-9" points="248.32 223.3 240.22 223.3 238.03 223.3 229.93 223.3 220.38 232.94 232.14 246.2 238.03 246.2 240.22 246.2 246.12 246.2 257.87 232.94 248.32 223.3"/><path class="cls-10" d="M254.2,262.21c-.73-3-8.08-16.31-8.08-16.31h-14s-7.35,13.29-8.08,16.31-10.29,93.66-10.29,93.66h50.72S254.93,265.23,254.2,262.21Z"/><path class="cls-11" d="M279.63,181c-.73,0,26,13.27,32.63,19.39s38.21,63.26,38.21,63.26l-19.84,3.4,15.43,18.37L287.27,389.49H263.75s18.68-133.28,20.88-148.92,5.57-40.17,5.57-40.17Z"/><path class="cls-11" d="M198.63,181c.73,0-26,13.27-32.63,19.39s-38.21,63.26-38.21,63.26l19.84,3.4-15.43,18.37L191,389.49H214.5s-18.68-133.28-20.88-148.92S188,200.4,188,200.4Z"/><g class="cls-12"><polygon class="cls-13" points="208.8 279.33 271.44 211.76 277.67 217.54 215.03 285.12 208.8 279.33"/><path class="cls-14" d="M271.52,213.75l4.16,3.87L215,283.13l-4.16-3.87,60.73-65.51m-.15-4-1.92,2.07-60.73,65.51-1.91,2.06,2.06,1.92,4.16,3.87,2.07,1.92L217,285l60.73-65.51,1.91-2.06-2.06-1.92-4.16-3.87-2.07-1.92Z"/><polygon class="cls-13" points="208.8 253.27 271.44 185.69 277.67 191.48 215.03 259.06 208.8 253.27"/><path class="cls-14" d="M271.52,187.69l4.16,3.87L215,257.07l-4.16-3.87,60.73-65.51m-.15-4-1.92,2.07-60.73,65.51-1.91,2.06,2.06,1.92,4.16,3.87,2.07,1.92L217,259l60.73-65.51,1.91-2.06-2.06-1.92-4.16-3.87-2.07-1.92Z"/><polygon class="cls-13" points="208.8 301.16 271.44 233.59 277.67 239.38 215.03 306.95 208.8 301.16"/><path class="cls-14" d="M271.52,235.58l4.16,3.87L215,305l-4.16-3.87,60.73-65.51m-.15-4-1.92,2.07-60.73,65.51-1.91,2.06,2.06,1.92L213,307l2.07,1.92,1.92-2.07,60.73-65.51,1.91-2.06-2.06-1.92-4.16-3.87-2.07-1.92Z"/><polygon class="cls-13" points="208.8 323 271.44 255.43 277.67 261.22 215.03 328.79 208.8 323"/><path class="cls-14" d="M271.52,257.42l4.16,3.87L215,326.8l-4.16-3.87,60.73-65.51m-.15-4-1.92,2.07L208.72,321l-1.91,2.06,2.06,1.92,4.16,3.87,2.07,1.92,1.92-2.07,60.73-65.51,1.91-2.06-2.06-1.92-4.16-3.87-2.07-1.92Z"/><polygon class="cls-13" points="205.18 348.74 271.44 277.26 277.67 283.05 211.4 354.53 205.18 348.74"/><path class="cls-14" d="M271.52,279.25l4.16,3.87-64.35,69.41-4.16-3.87,64.35-69.41m-.15-4-1.92,2.07L205.1,346.75l-1.91,2.06,2.06,1.92,4.16,3.87,2.07,1.92,1.92-2.07L277.74,285l1.91-2.06-2.06-1.92-4.16-3.87-2.07-1.92Z"/><polygon class="cls-13" points="208.8 366.67 271.44 299.1 277.67 304.88 215.03 372.46 208.8 366.67"/><polygon class="cls-13" points="214.95 370.47 210.79 366.6 271.52 301.09 275.68 304.96 214.95 370.47"/><path class="cls-14" d="M271.52,301.09l4.16,3.87L215,370.47l-4.16-3.87,60.73-65.51m-.15-4-1.92,2.07-60.73,65.51-1.91,2.06,2.06,1.92,4.16,3.87,2.07,1.92,1.92-2.07,60.73-65.51,1.91-2.06-2.06-1.92L273.43,299l-2.07-1.92Z"/><polygon class="cls-13" points="208.8 388.5 271.44 320.93 277.67 326.72 215.03 394.29 208.8 388.5"/><path class="cls-14" d="M271.52,322.92l4.16,3.87L215,392.3l-4.16-3.87,60.73-65.51m-.15-4L269.45,321l-60.73,65.51-1.91,2.06,2.06,1.92,4.16,3.87,2.07,1.92,1.92-2.07,60.73-65.51,1.91-2.06-2.06-1.92-4.16-3.87-2.07-1.92Z"/></g><path class="cls-15" d="M239.93,222.53s23.09-11.88,27.5-16.1,10.4-14.15,10.4-14.15l.23-13.31s12.65,15.72,13.38,19.33S283.59,245,277,254Z"/><path class="cls-15" d="M238.33,222.53s-23.09-11.88-27.5-16.1-10.4-14.15-10.4-14.15L200.19,179s-12.65,15.72-13.38,19.33S194.66,245,201.27,254Z"/><path class="cls-16" d="M461.13,367.84,435.31,326.9s2.09-5.55-.7-8.33a37.33,37.33,0,0,0-6.28-4.86s-8.38-11.8-9.77-16-4.19-26.37-4.19-26.37,0-11.1-2.79-16.65-9.07-9-9.07-9-21.64-6.24-28.62-10.41c-6-3.57-46.77-24.8-58.36-30.81a29.3,29.3,0,0,0-3.27-4.1c-6.22-5.76-30.23-17.82-32.47-19.25-1-1.33-1.72-2.18-1.72-2.18l-.11,6.47v-21c4.85-6.88,9.22-14,9.76-16.77.4-2.09,1-8.74,1.66-16.18a5.5,5.5,0,0,0,5.9,3.33c3-.27,4.7-10.4,5.53-14.67s3.59-12.27,5.25-18.4-.83-10.13-3-11.73-6.63,1.87-6.63,1.87l-.51.47c.14-.67.19-1.22.19-1.22a5.65,5.65,0,0,0,2.39-1.83s2.12-.79,2.39-2.36c0,0,1.33-3.67.8-5.5,0,0,3.72-1.83,3.72-3.93,0,0,1.33-5-.27-6.81,0,0,1.86-1,1.33-2.62a10.06,10.06,0,0,0-1.33-2.62s2.12-3.4.8-5.5a21,21,0,0,0-2.66-3.4s0-5.24-1.59-5.76a12.51,12.51,0,0,0,.8-4.45,7.49,7.49,0,0,0-1.62-3.48,8.44,8.44,0,0,0,.56-3.59c-.3-1.29-1.86-2.09-3.72-2.62-1.63-.46-1.33-1-1.33-1s0-2.88-1.59-3.67c0,0,0-3.4-1.33-3.93A3.14,3.14,0,0,0,291,28s-.8-3.14-2.12-3.67a2.61,2.61,0,0,0-2.39.26s.27-3.4-1.86-3.93a7.39,7.39,0,0,0-3.19-.26s.27-2.88-.8-3.67a3.32,3.32,0,0,0-2.39-.52s.27-3.67-1.86-4.19l-2.12-.52s-2.12-2.36-3.45-2.36c0,0-2.12-3.14-4-3.4L265,5.52a6.29,6.29,0,0,0-2.92-1.57,9.35,9.35,0,0,0-3.45.26s-1.86-3.14-3.72-3.14a3.87,3.87,0,0,0-2.66.79A6,6,0,0,0,249.05.54a1.9,1.9,0,0,0-1.86,1.57S243.48-.24,242.41,0a3.94,3.94,0,0,0-1.86,1.31,2.94,2.94,0,0,0-.22-.31l0-.74a5.83,5.83,0,0,0-2.45,0l0,.74a3,3,0,0,0-.22.31A3.94,3.94,0,0,0,235.84,0c-1.06-.26-4.78,2.09-4.78,2.09A1.9,1.9,0,0,0,229.2.54,6,6,0,0,0,226,1.85a3.87,3.87,0,0,0-2.66-.79c-1.86,0-3.72,3.14-3.72,3.14a9.35,9.35,0,0,0-3.45-.26,6.29,6.29,0,0,0-2.92,1.57l-1.86.26c-1.86.26-4,3.4-4,3.4-1.33,0-3.45,2.36-3.45,2.36l-2.12.52c-2.12.52-1.86,4.19-1.86,4.19a3.32,3.32,0,0,0-2.39.52c-1.06.79-.8,3.67-.8,3.67a7.39,7.39,0,0,0-3.19.26c-2.12.52-1.86,3.93-1.86,3.93a2.61,2.61,0,0,0-2.39-.26c-1.33.52-2.12,3.67-2.12,3.67a3.14,3.14,0,0,0-2.39,0c-1.33.52-1.33,3.93-1.33,3.93-1.59.79-1.59,3.67-1.59,3.67s.31.59-1.33,1c-1.86.52-3.42,1.33-3.72,2.62a8.45,8.45,0,0,0,.56,3.59,7.49,7.49,0,0,0-1.62,3.48,12.51,12.51,0,0,0,.8,4.45c-1.59.52-1.59,5.76-1.59,5.76a21.05,21.05,0,0,0-2.66,3.4c-1.33,2.09.8,5.5.8,5.5a10.06,10.06,0,0,0-1.33,2.62c-.53,1.57,1.33,2.62,1.33,2.62-1.59,1.83-.27,6.81-.27,6.81,0,2.09,3.72,3.93,3.72,3.93-.53,1.83.8,5.5.8,5.5.27,1.57,2.39,2.36,2.39,2.36a5.65,5.65,0,0,0,2.39,1.83s.05.53.19,1.18l-.47-.43s-4.44-3.47-6.66-1.87-4.71,5.6-3.05,11.73,4.44,14.13,5.27,18.4,2.5,14.4,5.55,14.67a5.52,5.52,0,0,0,5.87-3.24c.62,7.4,1.25,14,1.65,16.09.54,2.8,4.9,9.89,9.76,16.77v21l-.11-6.47s-.68.84-1.72,2.18c-2.24,1.42-26.25,13.49-32.47,19.25a29.29,29.29,0,0,0-3.27,4.1c-11.58,6-52.38,27.25-58.36,30.81-7,4.16-28.62,10.41-28.62,10.41s-6.28,3.47-9.07,9-2.79,16.65-2.79,16.65-2.79,22.2-4.19,26.37-9.77,16-9.77,16a37.33,37.33,0,0,0-6.28,4.86c-2.79,2.78-.7,8.33-.7,8.33L17.12,367.84H100.5c-.32,7.46-.32,17.55-.32,17.55h88.49l2.32,4.1H207.8l1.08,1,4.16,3.87,2.07,1.92,1.92-2.07,35.55-38.35h11.92l-.57-5.42h5.31l-5.47,39h23.52l2.32-4.1h88.49s0-10.09-.32-17.55Z"/><rect class="cls-17" x="72.04" y="435.33" width="331.64" height="28.05"/><rect class="cls-18" x="109.17" y="438.17" width="25.32" height="25.08"/><rect class="cls-16" x="72.04" y="435.33" width="331.64" height="12.67"/><rect class="cls-18" x="336.29" y="438.17" width="25.32" height="25.08"/><path class="cls-19" d="M0,334.42,25,438.09H454.71l23.55-103.67S2.27,336.79,0,334.42Z"/><path class="cls-16" d="M47.53,438.09,150.15,335.46c-83,.06-149.31-.16-150.15-1L25,438.09Z"/><path class="cls-16" d="M418.94,334.69l-27.85,27.84q-37.84,37.81-75.73,75.56H454.71l23.55-103.67S455.08,334.53,418.94,334.69Z"/></g></g></g></svg>