<svg xmlns="http://www.w3.org/2000/svg" viewBox="0 0 4568.38 4653.73"><defs><style>.cls-1{fill:#363636;}</style></defs><title>Asset 2</title><g id="Layer_2" data-name="Layer 2"><g id="Layer_1-2" data-name="Layer 1"><path class="cls-1" d="M4327.27,3208.72C4232,2984.43,4029.71,2983,4029.71,2983c-22.43,0-889.58-269.12-889.58-269.12-41.12-15-209.31-138.3-209.31-138.3,41.11,231.74,0,706.43,0,706.43-33.64,235.48-362.56,927-362.56,927l-50.46-562.53c-29.9-86-121.48-244.82-121.48-244.82,50.46-37.38,136.43-132.69,136.43-132.69,13.08-13.08,1.87-24.3,1.87-24.3l-186.82-205.5,466-426.17c16.7-18.66,23.26-45.06,25.55-65.92l-37.1-439.51c34.12-62.78,104.76-208.22,141.75-395.78,5.37,3.63,56.58,35,92.92-63.11,38.38-103.64,136.92-493.8,6.42-443.9l29.83-318.17,16.23-173.16s3.82-99.86-34-198.93c-16-41.75-35.19-71.76-52.57-86.9-41.7-36.29-65.79-13.65-69.11-54.6-4.44-54.78-44.91-93.21-116.44-148.43-78.83-60.86-221.16-163.21-518.8-163.74-22-.94-89.19-.14-126.95-1.6-54.94-2.13-141-38.89-154.69-57.61-9.14-12.47,14.94,52.81,57.08,83.75,30.87,22.67,43.43,21.18,32,21.87-3.33.2-27.75-.79-36.74-1.8-54.89-6.18-111.65-30.92-116.62-33-6.52-2.74,19.23,17.35,41.21,31.61,19.22,12.47,43.77,14.7,29.6,17.2-404,71.35-337.25,270.34-411.65,323.5-136.83,97.76-134.35,268.7-134.35,268.7l46.07,491.33c-130.51-49.9-34.14,336,4.25,439.6s95.55,67.08,95.55,67.08c37,187.72,107.67,333.29,141.81,396.11L1727.89,2547c2.29,20.85,8.85,47.25,25.55,65.92L2220.66,3039l-186.89,205.57s-11.21,11.21,1.87,24.3c0,0,86,95.31,136.43,132.69,0,0-91.57,158.86-121.48,244.82l-50.46,562.53s-328.92-691.48-362.56-927c0,0-41.12-474.69,0-706.43,0,0-168.2,123.34-209.31,138.3,0,0-867.15,269.12-889.58,269.12,0,0-202.25,1.46-297.57,225.75,0,0-173.82,493.43-241.11,981.25,0,0,983.46,448.81,2284.19,463.76,1300.73-15,2284.19-463.76,2284.19-463.76C4501.1,3702.15,4327.27,3208.72,4327.27,3208.72Z"/></g></g></svg>