<svg xmlns="http://www.w3.org/2000/svg" xmlns:xlink="http://www.w3.org/1999/xlink" viewBox="0 0 478.25 472.65"><defs><style>.cls-1{fill:none;}.cls-2{isolation:isolate;}.cls-3{fill:#7e7e7e;}.cls-4{fill:#bdbdbd;}.cls-5{fill:#8b8b8b;}.cls-6{fill:#3f3f3f;}.cls-7{fill:#444;}.cls-8{fill:#313131;}.cls-9{fill:#363636;}.cls-10{fill:#2e2e2e;}.cls-11{fill:#3c3c3c;}.cls-12{clip-path:url(#clip-path);}.cls-13{fill:#1d1d1d;}.cls-14{fill:#d0d0d0;}.cls-15,.cls-16{fill:#054366;}.cls-15{opacity:0.5;mix-blend-mode:soft-light;}.cls-17{fill:#f2f2f2;}.cls-18{fill:#c0242d;}</style><clipPath id="clip-path"><path class="cls-1" d="M254.28,256.08c-1.53-3.72-5.17-10.47-8.54-16.47,3-2.25,16.89-12.94,16.89-16.62,0-4.11-3.88-7.05-22.64-7.05h-1.74c-18.76,0-22.64,2.94-22.64,7.05,0,3.58,13.22,13.83,16.65,16.43-3.23,6-6.76,12.89-8.3,16.65-3.72,9.06-15.51,152.63-15.51,152.63H269.8S258,265.14,254.28,256.08Z"/></clipPath></defs><title>dale</title><g class="cls-2"><g id="Layer_2" data-name="Layer 2"><g id="Layer_1-2" data-name="Layer 1"><path class="cls-3" d="M283.74,151.24H194.51s-2.07,49.12-2.59,64.44l47.22.75h2.56l44.63-.75C285.82,200.36,283.74,151.24,283.74,151.24Z"/><path class="cls-4" d="M287.92,192s-40.67,19.65-48.8,24.81C231,211.63,190.33,192,190.33,192l-3.95,224.52H291.87Z"/><path class="cls-5" d="M298.88,50.35c-1.72-9-23.55-35-59.75-32.82-36.2-2.17-58,23.77-59.75,32.82s.43,58.81.43,58.81,1.3,11.72,2.6,19.53,11.29,38.63,14.12,44.49,19.24,20.24,22.34,21.7c8,3.73,18.87,3.15,18.87,3.15h2.78s10.91.58,18.87-3.15c3.11-1.46,19.52-15.84,22.34-21.7s12.81-36.68,14.12-44.49,2.6-19.53,2.6-19.53S300.62,59.46,298.88,50.35Z"/><path class="cls-6" d="M269.8,408.71S258,265.14,254.28,256.08c-3.18-7.75-15.51-28.57-15.51-28.57s-11.61,20.83-14.8,28.57c-3.72,9.06-15.51,152.63-15.51,152.63H269.8Z"/><path class="cls-7" d="M240,215.95h-1.74c-18.76,0-22.64,2.94-22.64,7.05s17.46,17,17.46,17h12.09s17.46-12.93,17.46-17S258.75,215.95,240,215.95Z"/><path class="cls-8" d="M413.33,229s11,8.41,12.94,22,8.41,31.69,10.35,36.87,15.22,123.53,15.22,123.53H377.76l1.94-129.35Z"/><path class="cls-8" d="M64.92,229s-11,8.41-12.94,22-8.41,31.69-10.35,36.87S26.41,411.44,26.41,411.44h74.08L98.55,282.08Z"/><path class="cls-9" d="M300.15,188.3s31.69,10.35,42.69,15.52,64.68,20,69.2,22.64S403,265.27,401.69,284s-16.82,61.44-12.94,86,6.47,49.8,6.47,49.8h-99.6Z"/><path class="cls-9" d="M178.11,188.3s-31.69,10.35-42.69,15.52-64.68,20-69.2,22.64S75.27,265.27,76.56,284s16.82,61.44,12.94,86S83,419.85,83,419.85h99.6Z"/><path class="cls-9" d="M258,11s2.91-1.29,4.85.65c0,0,8.4-.32,11.63,2.26s3.55,4.85,3.55,4.85a36.7,36.7,0,0,1,8.72,3.88c3.23,2.26,7.75,8.08,7.75,8.08s5.17,1.29,5.17,4.85c0,0,2.91.65,3.88,2.26a4.07,4.07,0,0,1,0,3.55,26.81,26.81,0,0,1,3.88,4.2,4.72,4.72,0,0,1,.32,3.55s2.91,3.55,2.58,6.78l-.32,3.23s-2.26,5.82-.65,8.08a11.32,11.32,0,0,1,1.94,7.11c0,2.58-2.91,5.49-2.58,8.08a12.18,12.18,0,0,1-1,5.49s-5.17,3.23-4.85,5.82-1.94,9-1.94,10.66-.32,10.34-.32,10.34l-5.82,3.23s2.58-25.52,2.58-28.43-4.85-9-4.85-9l.32-11.31,1.62,1.62-1.94-3.88,2.26.65-1.62-2.26.65-7.11,1-2.26a38.1,38.1,0,0,0-8.08-17.12c-4.2-5.17-12.92-14.54-31-19.71Z"/><path class="cls-3" d="M299.72,95s4.85-10.66,8.08-7.11,1.29,5.49,1,9.37-3.23,10.66-1.62,15.18-.65,18.42-1.29,21.65-6.14,12.28-12.28,2.91Z"/><path class="cls-9" d="M248.35,96,250,93.07a54,54,0,0,0,9-4.2c3.55-2.26,11.41-5,12.49-4.7,1.57.45,9.15,4.05,10.77,6.64a8.05,8.05,0,0,1,1,5.49s-9.39-8-11.18-7.87a57.54,57.54,0,0,0-12.41,3.67C257.07,93.39,248.35,96,248.35,96Z"/><path class="cls-9" d="M220.21,11s-2.91-1.29-4.85.65c0,0-8.4-.32-11.63,2.26s-3.55,4.85-3.55,4.85a36.7,36.7,0,0,0-8.72,3.88c-3.23,2.26-7.75,8.08-7.75,8.08s-5.17,1.29-5.17,4.85c0,0-2.91.65-3.88,2.26a4.07,4.07,0,0,0,0,3.55,26.81,26.81,0,0,0-3.88,4.2,4.72,4.72,0,0,0-.32,3.55s-2.91,3.55-2.58,6.78l.32,3.23s2.26,5.82.65,8.08a11.32,11.32,0,0,0-1.94,7.11c0,2.58,2.91,5.49,2.58,8.08a12.18,12.18,0,0,0,1,5.49s5.17,3.23,4.85,5.82,1.94,9,1.94,10.66.32,10.34.32,10.34l5.82,3.23s-2.58-25.52-2.58-28.43,4.85-9,4.85-9l-.32-11.31-1.62,1.62,1.94-3.88-2.26.65L185,65.29l-.65-7.11-1-2.26a38.1,38.1,0,0,1,8.08-17.12c4.2-5.17,12.92-14.54,31-19.71Z"/><path class="cls-3" d="M178.53,95s-4.85-10.66-8.08-7.11-1.29,5.49-1,9.37,3.23,10.66,1.62,15.18.65,18.42,1.29,21.65,6.14,12.28,12.28,2.91Z"/><path class="cls-9" d="M229.9,96l-1.62-2.91a54,54,0,0,1-9-4.2c-3.55-2.26-11.41-5-12.49-4.7-1.57.45-9.15,4.05-10.77,6.64a8.05,8.05,0,0,0-1,5.49s9.39-8,11.18-7.87A57.54,57.54,0,0,1,218.6,92.1C221.18,93.39,229.9,96,229.9,96Z"/><path class="cls-10" d="M286.56,178.6S329.9,208.35,337,218.05L320.2,245.86s18.11-3.88,22-3.88,2.59,50.45,2.59,65.32S304,460.59,304,460.59l-36.22-7.11S280.1,318.3,282.68,266.56C284.43,231.58,286.56,178.6,286.56,178.6Z"/><path class="cls-10" d="M191.69,178.6s-43.33,29.75-50.45,39.45l16.82,27.81s-18.11-3.88-22-3.88-2.59,50.45-2.59,65.32,40.75,153.28,40.75,153.28l36.22-7.11S198.16,318.3,195.57,266.56C193.82,231.58,191.69,178.6,191.69,178.6Z"/><path class="cls-11" d="M258.37,9.07c-1.29-1-3.88-1-3.88-1S250,1,246.09.67A14.84,14.84,0,0,0,239,2s-.89-2.08-2.68-2c-1.9-.12-2.86,2-2.86,2A16.71,16.71,0,0,0,225.87.67c-4.13.32-9,7.43-9,7.43s-2.76,0-4.13,1-1,6.14-.69,7.75,4.48,5.17,5.51,6.78,4.13,3.23,4.13,3.23l3.79-3.55.69,2.91L231,23.93l1.72,3.55,1.38-1.94,2.07,1.62s0-.42.1-1.16c.06.74.09,1.16.09,1.16l1.94-1.62,1.29,1.94,1.62-3.55,4.52,2.26.65-2.91L250,26.84s2.91-1.62,3.88-3.23,4.85-5.17,5.17-6.78S259.66,10,258.37,9.07Z"/><g class="cls-12"><polygon class="cls-13" points="272.48 246.36 200.99 224.37 200.99 200.4 272.48 222.39 272.48 246.36"/><polygon class="cls-13" points="272.48 293.23 200.99 271.24 200.99 247.27 272.48 269.26 272.48 293.23"/><polygon class="cls-13" points="272.48 340.1 200.99 318.11 200.99 294.14 272.48 316.13 272.48 340.1"/><polygon class="cls-13" points="272.48 386.97 200.99 364.98 200.99 341.01 272.48 363 272.48 386.97"/><polygon class="cls-13" points="272.48 433.84 200.99 411.85 200.99 387.88 272.48 409.87 272.48 433.84"/></g><path class="cls-14" d="M240.92,216s14.5,4.23,20,9.16,13.81,13.39,13.81,13.39,11-42.28,12.43-50-2-9.87-2-9.87-2.16,9.16-7.68,14.09S240.92,216,240.92,216Z"/><path class="cls-14" d="M238.08,216.11s-14.73,4.25-20.34,9.2-14,13.45-14,13.45-11.22-42.46-12.63-50.25,2-9.91,2-9.91,2.21,9.2,7.83,14.15S238.08,216.11,238.08,216.11Z"/><path class="cls-15" d="M394.3,411.44h57.54S438.56,293.08,436.61,287.9s-8.41-23.28-10.35-36.87-12.94-22-12.94-22l-.38.59c0-1.68-.25-2.8-.92-3.18-4.53-2.59-58.21-17.46-69.2-22.64C332.52,199,304,189.57,300.5,188.42c-7.92-5.69-13.94-9.82-13.94-9.82l-.07,1.61a4.43,4.43,0,0,0-1.3-1.61s-.09.38-.27,1c-.19-4.66-.38-9.18-.54-13.18,2.86-8,6.88-20.4,9.36-29.2,6.08,9,11.48.07,12.12-3.13s2.91-17.12,1.29-21.65,1.29-11.31,1.62-15.18,2.26-5.82-1-9.37a12.18,12.18,0,0,0,1-5.49c-.32-2.58,2.58-5.49,2.58-8.08a11.32,11.32,0,0,0-1.94-7.11c-1.62-2.26.65-8.08.65-8.08l.32-3.23c.32-3.23-2.58-6.78-2.58-6.78a4.72,4.72,0,0,0-.32-3.55,26.81,26.81,0,0,0-3.88-4.2,4.07,4.07,0,0,0,0-3.55c-1-1.62-3.88-2.26-3.88-2.26,0-3.55-5.17-4.85-5.17-4.85S290,24.9,286.8,22.64a36.7,36.7,0,0,0-8.72-3.88s-.32-2.26-3.55-4.85-11.63-2.26-11.63-2.26a4.08,4.08,0,0,0-3.79-1,2.7,2.7,0,0,0-.74-1.63c-1.29-1-3.88-1-3.88-1S250,1,246.09.67A14.84,14.84,0,0,0,239,2s-.89-2.08-2.68-2c-1.9-.12-2.86,2-2.86,2A16.71,16.71,0,0,0,225.87.67c-4.13.32-9,7.43-9,7.43s-2.76,0-4.13,1a3.87,3.87,0,0,0-.93,2.66c-2.7.18-6.25.7-8.11,2.19-3.23,2.58-3.55,4.85-3.55,4.85a36.7,36.7,0,0,0-8.72,3.88c-3.23,2.26-7.75,8.08-7.75,8.08s-5.17,1.29-5.17,4.85c0,0-2.91.65-3.88,2.26a4.07,4.07,0,0,0,0,3.55,26.82,26.82,0,0,0-3.88,4.2,4.72,4.72,0,0,0-.32,3.55s-2.91,3.55-2.58,6.78l.32,3.23s2.26,5.82.65,8.08a11.32,11.32,0,0,0-1.94,7.11c0,2.58,2.91,5.49,2.58,8.08a12.18,12.18,0,0,0,1,5.49c-3.23,3.55-1.29,5.49-1,9.37s3.23,10.66,1.62,15.18.65,18.42,1.29,21.65,6,12.11,12.12,3.13c2.48,8.8,6.49,21.25,9.36,29.2-.17,4-.35,8.47-.54,13.11-.17-.59-.26-.94-.26-.94a4.46,4.46,0,0,0-1.32,1.63l-.07-1.63s-6,4.13-13.94,9.82c-3.5,1.15-32,10.55-42.33,15.41-11,5.17-64.68,20-69.2,22.64-.67.38-.94,1.5-.92,3.18l-.38-.59s-11,8.41-12.94,22-8.41,31.69-10.35,36.87S26.41,411.44,26.41,411.44H84c-.6,5.21-.92,8.41-.92,8.41h79.4c6.64,23.23,11.8,40.75,11.8,40.75l36.22-7.11s-1.37-15-3.28-37h9L269.64,433c-1.12,12.65-1.84,20.51-1.84,20.51L304,460.59s5.16-17.51,11.8-40.75h79.4S394.89,416.65,394.3,411.44Z"/><rect class="cls-16" x="72.04" y="444.6" width="331.64" height="28.05"/><rect class="cls-17" x="109.17" y="447.43" width="25.32" height="25.08"/><rect class="cls-15" x="72.04" y="444.6" width="331.64" height="12.67"/><rect class="cls-17" x="336.29" y="447.43" width="25.32" height="25.08"/><path class="cls-18" d="M0,343.69,25,447.36H454.71l23.55-103.67S2.27,346.06,0,343.69Z"/><path class="cls-15" d="M47.53,447.36,150.15,344.73c-83,.06-149.31-.16-150.15-1L25,447.36Z"/><path class="cls-15" d="M418.94,344,391.09,371.8q-37.84,37.81-75.73,75.56H454.71l23.55-103.67S455.08,343.8,418.94,344Z"/></g></g></g></svg>