<svg xmlns="http://www.w3.org/2000/svg" viewBox="0 0 478.25 461.84"><defs><style>.cls-1{isolation:isolate;}.cls-2{fill:#313131;}.cls-3{fill:#c7c7c7;}.cls-4{fill:#3b3b3b;}.cls-5{fill:#979797;}.cls-6{fill:#a2a2a2;}.cls-7{fill:#434343;}.cls-8{fill:#343434;}.cls-9{fill:#2e2e2e;}.cls-10{fill:#f6f6f6;}.cls-11{fill:#545454;}.cls-12{fill:#a5a5a5;}.cls-13,.cls-14{fill:#054366;}.cls-13{opacity:0.5;mix-blend-mode:soft-light;}.cls-15{fill:#f2f2f2;}.cls-16{fill:#c0242d;}</style></defs><title>ward</title><g class="cls-1"><g id="Layer_2" data-name="Layer 2"><g id="Layer_1-2" data-name="Layer 1"><path class="cls-2" d="M374,234.22s21.91-1.73,27.1,3.46,3.46,28.25,1.15,34c0,0,4.61,2.31,5.76,5.76s-4.61,9.22-4.61,9.22,5.76,23.64,7.49,28.25,5.76,26.52,5.76,26.52,4,2.31,4.61,4-4.61,6.92-4.61,6.92l4.61,32.28H370.57l-11-134.9Z"/><path class="cls-2" d="M104.23,234.22s-21.91-1.73-27.1,3.46-3.46,28.25-1.15,34c0,0-4.61,2.31-5.76,5.76s4.61,9.22,4.61,9.22-5.76,23.64-7.49,28.25-5.76,26.52-5.76,26.52-4,2.31-4.61,4,4.61,6.92,4.61,6.92L57,384.69h50.73l11-134.9Z"/><rect class="cls-3" x="175.39" y="248.5" width="126.56" height="143.07"/><path class="cls-4" d="M182.87,142.63s3.8,18.35,4.43,24-2.53,12-7,13.92l5.06,1.27s-7.59,2.53-13.29,2.53c0,0,5.69,6.33,12,7.59a14.68,14.68,0,0,0,10.76-1.9l-4.43,3.16s10.12-.63,12-1.9,15.19-2.53,15.19-2.53l.63-36.07Z"/><path class="cls-4" d="M294.47,142.63s-3.8,18.35-4.43,24,2.53,12,7,13.92l-5.06,1.27s7.59,2.53,13.29,2.53c0,0-5.69,6.33-12,7.59a14.68,14.68,0,0,1-10.76-1.9l4.43,3.16s-10.12-.63-12-1.9-15.19-2.53-15.19-2.53L259,152.75Z"/><path class="cls-5" d="M287.42,207.13,277,206.75c-.66-4.12,1-35.94,1-35.94H199.39s1.65,31.83,1,35.94l-10.46.37s-9.56,33.06-9.23,42.05,42.22,93.31,57.64,97.61v.14l.34-.07.34.07v-.14c15.42-4.29,57.31-88.75,57.64-97.61S287.42,207.13,287.42,207.13Z"/><path class="cls-5" d="M189.2,145.16s-7.59,1.27-10.76-3.8-3.8-12-3.8-12-3.8-8.86-3.8-16.45,3.8-12.65,5.69-13.92,12.65,9.49,12.65,9.49Z"/><path class="cls-5" d="M288.14,145.16s7.59,1.27,10.76-3.8,3.8-12,3.8-12,3.8-8.86,3.8-16.45-3.8-12.65-5.69-13.92-12.65,9.49-12.65,9.49Z"/><circle class="cls-3" cx="183.65" cy="141.03" r="1.95"/><path class="cls-6" d="M241.64,25.57h-5.41c-54,5.06-57.79,67.07-57.79,67.07l9.49,62.64s3.8,10.12,8.86,16.45,17.08,13.92,22.78,15.82c4.82,1.61,15.69,1.85,18.91,1.89h.92c3.15,0,13.58-.29,18.38-1.89,5.69-1.9,17.72-9.49,22.78-15.82s8.86-16.45,8.86-16.45l9.49-62.64S295.1,30.63,241.64,25.57Z"/><path class="cls-7" d="M310.92,73.66c0-12.66-4.43-27.21-4.43-27.21A50.21,50.21,0,0,0,303.33,37c-1.9-3.8-7.59-6.33-7.59-6.33a57.93,57.93,0,0,0-4.43-8.23,5.35,5.35,0,0,0-5.06-1.9s-1.9-5.69-4.43-8.23S273,9.12,273,9.12C271.69,6,262.2,4.05,262.2,4.05a13,13,0,0,0-5.06-3.8C254-1,247.65,2.79,247.65,2.79,245.43,0,240,.64,238.67.84c-1.34-.2-6.77-.82-9,1.95,0,0-6.33-3.8-9.49-2.53a13,13,0,0,0-5.06,3.8S205.65,6,204.38,9.12c0,0-6.33.63-8.86,3.16s-4.43,8.23-4.43,8.23A5.35,5.35,0,0,0,186,22.4a57.94,57.94,0,0,0-4.43,8.23S175.91,33.16,174,37a50.21,50.21,0,0,0-3.16,9.49S166.42,61,166.42,73.66s-.63,19.62-.63,24.68,5.06,12,5.06,12,1.27-5.69,3.16-7,7.59,13.92,7.59,13.92,5.06-24.68,5.69-27.21,1.9-25.94,2.53-27.84,12.65-17.08,12.65-17.08l5.69,1.27L205.65,42l7,1.9-3.16-5.06s8.23,2.53,11.39,3.16-.63-2.53-.63-2.53l8.86-.63V35.69l3.8,2.53,1.9-4.43,1.27,3.8,2.65-3.41,2.65,3.41,1.27-3.8,1.9,4.43,3.8-2.53v3.16l8.86.63s-3.8,3.16-.63,2.53,11.39-3.16,11.39-3.16l-3.16,5.06,7-1.9-2.53,4.43,5.69-1.27s12,15.19,12.65,17.08,1.9,25.31,2.53,27.84,5.69,27.21,5.69,27.21,5.69-15.19,7.59-13.92,3.16,7,3.16,7,5.06-7,5.06-12S310.92,86.31,310.92,73.66Z"/><circle class="cls-3" cx="293.69" cy="141.03" r="1.95"/><path class="cls-4" d="M194.1,87.71s3.88-6.3,5.82-7.51,10.18-.48,15.75,1.21c4,1.22,9,3.63,9.93,4.6s1.7,6.78,1.7,6.78-15-7-19.38-8a21.11,21.11,0,0,0-6.3-.73Z"/><path class="cls-4" d="M283.24,87.71s-3.88-6.3-5.82-7.51-10.18-.48-15.75,1.21c-4,1.22-9,3.63-9.93,4.6S250,92.8,250,92.8s15-7,19.38-8a21.11,21.11,0,0,1,6.3-.73Z"/><path class="cls-8" d="M290.93,206s54.49,16.14,65.55,20.18,22.74,8.07,22.74,8.07-6.76,13.84-9.22,38.63,2.46,52.46,2.46,52.46v64l-99.73,3.06-.79-38.52Z"/><path class="cls-8" d="M187.33,206s-54.49,16.14-65.55,20.18S99,234.22,99,234.22s6.76,13.84,9.22,38.63-2.46,52.46-2.46,52.46v64l99.73,3.06.79-38.52Z"/><path class="cls-3" d="M238.52,225.07c-24.72,0-39.06-24.32-39.2-24.56a.59.59,0,0,1,1-.59c.14.24,14.15,24,38.18,24s38.33-23.74,38.47-24a.58.58,0,0,1,.81-.21.59.59,0,0,1,.21.81C277.87,200.76,263.24,225.07,238.52,225.07Z"/><circle class="cls-3" cx="233.68" cy="224.3" r="2.62"/><circle class="cls-3" cx="243.66" cy="224.3" r="2.62"/><circle class="cls-3" cx="214.55" cy="216.27" r="2.62"/><circle class="cls-3" cx="263.29" cy="216.27" r="2.62"/><path class="cls-3" d="M238.52,240.05c-24.72,0-39.06-24.32-39.2-24.56a.59.59,0,0,1,1-.59c.14.24,14.15,24,38.18,24s38.33-23.74,38.47-24a.58.58,0,0,1,.81-.21.59.59,0,0,1,.21.81C277.87,215.74,263.24,240.05,238.52,240.05Z"/><circle class="cls-3" cx="233.68" cy="239.29" r="2.62"/><circle class="cls-3" cx="243.66" cy="239.29" r="2.62"/><circle class="cls-3" cx="214.55" cy="231.26" r="2.62"/><circle class="cls-3" cx="263.29" cy="231.26" r="2.62"/><path class="cls-9" d="M278,200.21s19.72,4,40,20.75c16.13,13.29,18,20.18,18,20.18l-22.62,15s12.88,16.43,15.19,19.89-56.6,91.19-56.6,91.19-.32-6.55-.7-16.45c-.93-24.17-2.24-68.34-.23-86C274.48,234.22,278,200.21,278,200.21Z"/><path class="cls-9" d="M200.29,200.21s-19.72,4-40,20.75c-16.13,13.29-18,20.18-18,20.18l22.62,15S152,272.56,149.72,276s56.6,91.19,56.6,91.19.32-6.55.7-16.45c.93-24.17,2.24-68.34.23-86C203.77,234.22,200.29,200.21,200.29,200.21Z"/><path class="cls-10" d="M292,267.43s4.82-1.13,7.6.59,4.95,3.41,9.74,1.93l-.51-8.09s-4.33-.62-6.32-2.3c-2.58-2.19-7.33-2.05-11.69-.66Z"/><path class="cls-11" d="M308.74,262.2c-.18,0-4.45-.65-6.5-2.38-2.23-1.89-6.58-2.12-11.36-.59l-.21-.66c3.92-1.25,9.13-1.72,12,.73,1.89,1.6,6.1,2.22,6.14,2.22Z"/><path class="cls-11" d="M308.46,263.59a13.34,13.34,0,0,1-6.69-2.36c-2.63-2.11-7.4-1.64-10.68-.59l-.21-.66c3.45-1.1,8.48-1.58,11.33.71,2,1.64,5.91,2.4,6.57,2.18l.21.67A1.92,1.92,0,0,1,308.46,263.59Z"/><path class="cls-11" d="M307.95,265a12.56,12.56,0,0,1-6.66-2.38c-2.4-1.83-6.87-1.58-10-.58l-.21-.66c2.55-.81,7.66-1.58,10.64.69,2.24,1.7,5.74,2.54,7.14,2.12l.21.66A3.77,3.77,0,0,1,307.95,265Z"/><path class="cls-11" d="M307.4,266.48a12.21,12.21,0,0,1-6.59-2.41c-2.49-1.8-7-1.3-9.33-.57l-.21-.66c1.74-.56,6.91-1.52,10,.67,2.15,1.55,5.37,2.8,7.72,2.06l.21.67A5.88,5.88,0,0,1,307.4,266.48Z"/><path class="cls-11" d="M306.92,267.94a12,12,0,0,1-6.59-2.45c-2.48-1.7-7-1.1-8.66-.57l-.21-.66c1.2-.38,6.28-1.39,9.27.65,3.18,2.19,5.75,2.81,8.3,2l.21.66A7.74,7.74,0,0,1,306.92,267.94Z"/><path class="cls-11" d="M306.41,269.4c-2.72,0-4.73-1.31-6.56-2.5-2.62-1.7-7.24-.8-8-.56l-.21-.66c.79-.25,5.73-1.21,8.58.64s5.19,3.1,8.88,2l.21.66A9.72,9.72,0,0,1,306.41,269.4Z"/><path class="cls-11" d="M305.94,270.86c-2.51,0-4.23-1.07-6-2.19l-.57-.35c-2.62-1.62-7.29-.55-7.33-.54l-.16-.68c.21-.05,5-1.14,7.86.63l.57.36c2.46,1.54,4.57,2.87,8.89,1.54l.21.66A11.63,11.63,0,0,1,305.94,270.86Z"/><line class="cls-10" x1="290.78" y1="258.9" x2="291.96" y2="267.43"/><path class="cls-8" d="M300,263.46l-.43-5.64a16.1,16.1,0,0,0-8.6.64l.54,5A21.28,21.28,0,0,1,300,263.46Z"/><polygon class="cls-12" points="290.42 256.65 291.88 256.52 293.78 270.16 292.07 269.98 290.42 256.65"/><path class="cls-13" d="M421.3,345.49c-.58-1.73-4.61-4-4.61-4s-4-21.91-5.77-26.52-7.49-28.25-7.49-28.25,5.77-5.77,4.61-9.22-5.77-5.77-5.77-5.77c2.31-5.76,4-28.82-1.15-34-3.69-3.69-15.85-3.88-22.55-3.68-2.58-.9-12.56-4.37-22.09-7.85-8.4-3.07-41.87-13.12-57.47-17.77a90.29,90.29,0,0,0-20.93-8.14.58.58,0,0,0-1.09-.32l-.17.28c0-2.39.11-5.19.21-8.11a86.47,86.47,0,0,0,9.84,1.17l-4.43-3.16A14.68,14.68,0,0,0,293.2,192c6.33-1.27,12-7.59,12-7.59-5.69,0-13.29-2.53-13.29-2.53l5.06-1.27c-4.43-1.9-7.59-8.23-7-13.92.5-4.49,3-16.83,4-21.86a8.12,8.12,0,0,0,4.88-3.45c3.16-5.06,3.8-12,3.8-12s3.8-8.86,3.8-16.45a21.89,21.89,0,0,0-.34-3.85c.22.78.34,1.32.34,1.32s5.06-7,5.06-12-.63-12-.63-24.68-4.43-27.21-4.43-27.21A50.2,50.2,0,0,0,303.33,37c-1.9-3.8-7.59-6.33-7.59-6.33a57.94,57.94,0,0,0-4.43-8.23,5.35,5.35,0,0,0-5.06-1.9s-1.9-5.69-4.43-8.23S273,9.12,273,9.12C271.69,6,262.2,4.05,262.2,4.05a13,13,0,0,0-5.06-3.8C254-1,247.65,2.79,247.65,2.79,245.43,0,240,.64,238.67.84c-1.34-.2-6.77-.82-9,1.95,0,0-6.33-3.8-9.49-2.53a13,13,0,0,0-5.06,3.8S205.65,6,204.38,9.12c0,0-6.33.63-8.86,3.16s-4.43,8.23-4.43,8.23A5.35,5.35,0,0,0,186,22.4a57.94,57.94,0,0,0-4.43,8.23S175.91,33.16,174,37a50.22,50.22,0,0,0-3.16,9.49S166.42,61,166.42,73.66s-.63,19.62-.63,24.68,5.06,12,5.06,12,.12-.54.34-1.32a21.89,21.89,0,0,0-.34,3.85c0,7.59,3.8,16.45,3.8,16.45s.63,7,3.8,12a8.12,8.12,0,0,0,4.88,3.45c1,5,3.48,17.38,4,21.86.63,5.69-2.53,12-7,13.92l5.06,1.27s-7.59,2.53-13.29,2.53c0,0,5.69,6.33,12,7.59a14.68,14.68,0,0,0,10.76-1.9l-4.43,3.16a86.48,86.48,0,0,0,9.84-1.17c.1,2.92.17,5.73.21,8.12l-.17-.28a.59.59,0,0,0-.81-.22.59.59,0,0,0-.24.74,94.13,94.13,0,0,0-20.06,7.94c-15.6,4.65-49.06,14.71-57.47,17.77-9.53,3.48-19.51,7-22.09,7.85-6.7-.2-18.86,0-22.55,3.68-5.19,5.19-3.46,28.25-1.15,34,0,0-4.61,2.31-5.76,5.77s4.61,9.22,4.61,9.22-5.77,23.64-7.49,28.25-5.77,26.52-5.77,26.52-4,2.31-4.61,4,4.61,6.92,4.61,6.92L57,384.69H105.8v4.61l69.59,2.14v.14h4.54l25.61.79,0-.79H272.7l0,.79,25.61-.79H302v-.11l70.5-2.16v-4.61H421.3l-4.61-32.28S421.87,347.22,421.3,345.49Z"/><rect class="cls-14" x="72.04" y="433.79" width="331.64" height="28.05"/><rect class="cls-15" x="109.17" y="436.62" width="25.32" height="25.08"/><rect class="cls-13" x="72.04" y="433.79" width="331.64" height="12.67"/><rect class="cls-15" x="336.29" y="436.62" width="25.32" height="25.08"/><path class="cls-16" d="M0,332.88,25,436.55H454.71l23.55-103.67S2.27,335.25,0,332.88Z"/><path class="cls-13" d="M47.53,436.55,150.15,333.92c-83,.06-149.31-.16-150.15-1L25,436.55Z"/><path class="cls-13" d="M418.94,333.15,391.09,361q-37.84,37.81-75.73,75.56H454.71l23.55-103.67S455.08,333,418.94,333.15Z"/></g></g></g></svg>